<svg xmlns="http://www.w3.org/2000/svg" xmlns:xlink="http://www.w3.org/1999/xlink" width="500" zoomAndPan="magnify" viewBox="0 0 375 374.999991" height="500" preserveAspectRatio="xMidYMid meet" version="1.0"><defs><g/><clipPath id="3690b9f2c8"><path d="M 163 74.128906 L 212 74.128906 L 212 95 L 163 95 Z M 163 74.128906 " clip-rule="nonzero"/></clipPath><clipPath id="705399c4fb"><path d="M 117.925781 165 L 140 165 L 140 186 L 117.925781 186 Z M 117.925781 165 " clip-rule="nonzero"/></clipPath><clipPath id="16230f8696"><path d="M 179 217 L 197 217 L 197 240.628906 L 179 240.628906 Z M 179 217 " clip-rule="nonzero"/></clipPath><clipPath id="668158beb2"><path d="M 235 165 L 257.425781 165 L 257.425781 186 L 235 186 Z M 235 165 " clip-rule="nonzero"/></clipPath><clipPath id="f465e3ab8d"><path d="M 153.914062 119.917969 L 217 119.917969 L 217 160 L 153.914062 160 Z M 153.914062 119.917969 " clip-rule="nonzero"/></clipPath><clipPath id="0c6b1b1bc7"><path d="M 184 131 L 221.414062 131 L 221.414062 159 L 184 159 Z M 184 131 " clip-rule="nonzero"/></clipPath><clipPath id="0c4970af4d"><path d="M 156 154 L 215 154 L 215 185.167969 L 156 185.167969 Z M 156 154 " clip-rule="nonzero"/></clipPath><clipPath id="23c973aecf"><path d="M 178.742188 185 L 195.992188 185 L 195.992188 201.496094 L 178.742188 201.496094 Z M 178.742188 185 " clip-rule="nonzero"/></clipPath></defs><rect x="-37.5" width="450" fill="#ffffff" y="-37.499999" height="449.999989" fill-opacity="1"/><rect x="-37.5" width="450" fill="#ffffff" y="-37.499999" height="449.999989" fill-opacity="1"/><path fill="#000000" d="M 214.667969 107.097656 L 160.679688 107.097656 C 160.679688 107.097656 158.726562 119.582031 144.25 121.53125 L 144.25 162.101562 C 144.25 196.644531 187.675781 216.539062 187.675781 216.539062 C 187.675781 216.539062 231.097656 196.644531 231.097656 162.101562 L 231.097656 121.53125 C 216.625 119.582031 214.667969 107.097656 214.667969 107.097656 Z M 227.226562 162.097656 C 227.226562 190.164062 195.296875 208.300781 187.671875 212.230469 C 184.320312 210.503906 176.273438 206.039062 168.34375 199.222656 C 162.390625 194.105469 157.664062 188.679688 154.300781 183.097656 C 150.199219 176.300781 148.125 169.234375 148.125 162.097656 L 148.125 124.699219 C 154.925781 122.925781 158.894531 118.980469 161.09375 115.757812 C 162.28125 114.019531 163.070312 112.335938 163.589844 110.957031 L 211.761719 110.957031 C 212.28125 112.335938 213.070312 114.019531 214.253906 115.757812 C 216.457031 118.976562 220.425781 122.925781 227.226562 124.699219 Z M 227.226562 162.097656 " fill-opacity="1" fill-rule="nonzero"/><g clip-path="url(#3690b9f2c8)"><path fill="#000000" d="M 170.226562 94.855469 L 205.125 94.855469 C 205.125 94.855469 209.882812 91.714844 211.261719 84.644531 C 212.363281 79.003906 208.78125 74.148438 208.78125 74.148438 L 208.296875 78.359375 L 210.160156 81.953125 C 210.160156 81.953125 209.226562 80.789062 207.953125 80.824219 C 207.953125 80.824219 208.054688 82.679688 209.433594 83.394531 C 209.433594 83.394531 207.226562 83.144531 206.675781 84.789062 C 206.125 86.429688 207.605469 86.464844 207.605469 86.464844 C 207.605469 86.464844 206.746094 85.394531 207.675781 84.859375 C 208.605469 84.324219 209.09375 85.285156 208.296875 86.964844 C 207.503906 88.644531 206.019531 90.285156 204.847656 90.355469 C 204.179688 90.398438 203.835938 89.8125 203.667969 89.300781 C 204.21875 89.207031 204.640625 88.707031 204.640625 88.105469 C 204.640625 87.4375 204.117188 86.890625 203.46875 86.890625 C 202.820312 86.890625 202.296875 87.4375 202.296875 88.105469 C 202.296875 88.710938 202.71875 89.207031 203.277344 89.300781 C 203.054688 89.769531 202.625 90.296875 201.8125 90.355469 C 200.332031 90.460938 199.46875 87.25 199.675781 86.320312 C 199.882812 85.394531 201.195312 85.320312 201.261719 86.140625 C 201.261719 86.140625 201.746094 85.144531 200.882812 84.785156 C 200.382812 84.578125 199.988281 84.707031 199.746094 84.851562 C 200.144531 84.5 200.859375 83.714844 201.054688 82.5 C 201.054688 82.5 199.746094 82.574219 199.054688 83.894531 L 199.8125 81.25 L 198.296875 78.253906 L 196.777344 81.253906 L 197.535156 83.894531 C 196.847656 82.574219 195.535156 82.503906 195.535156 82.503906 C 195.730469 83.714844 196.445312 84.5 196.847656 84.855469 C 196.601562 84.710938 196.207031 84.582031 195.710938 84.789062 C 194.847656 85.144531 195.328125 86.144531 195.328125 86.144531 C 195.398438 85.324219 196.707031 85.394531 196.914062 86.324219 C 197.121094 87.25 196.261719 90.464844 194.777344 90.355469 C 193.960938 90.296875 193.53125 89.761719 193.308594 89.292969 C 193.835938 89.171875 194.226562 88.6875 194.226562 88.109375 C 194.226562 87.4375 193.703125 86.894531 193.054688 86.894531 C 192.40625 86.894531 191.882812 87.4375 191.882812 88.109375 C 191.882812 88.695312 192.285156 89.1875 192.820312 89.296875 C 192.574219 89.761719 192.121094 90.28125 191.328125 90.320312 C 189.882812 90.394531 188.46875 85.179688 189.121094 83.46875 C 189.777344 81.753906 191.785156 83.003906 191.023438 84.359375 C 191.023438 84.359375 191.984375 84.253906 192.054688 82.859375 C 192.113281 81.652344 190.613281 80.898438 189.5625 81.425781 C 189.925781 81.109375 190.425781 80.566406 190.707031 79.789062 C 190.707031 79.789062 189.46875 79.503906 188.5 80.679688 L 189.671875 77.503906 L 187.675781 74.148438 L 185.675781 77.503906 L 186.847656 80.679688 C 185.878906 79.503906 184.640625 79.789062 184.640625 79.789062 C 184.925781 80.566406 185.421875 81.109375 185.785156 81.425781 C 184.734375 80.898438 183.234375 81.648438 183.292969 82.859375 C 183.363281 84.253906 184.324219 84.359375 184.324219 84.359375 C 183.5625 83.003906 185.570312 81.753906 186.226562 83.46875 C 186.878906 85.179688 185.464844 90.394531 184.019531 90.320312 C 183.222656 90.28125 182.773438 89.761719 182.527344 89.296875 C 183.0625 89.1875 183.464844 88.695312 183.464844 88.109375 C 183.464844 87.4375 182.941406 86.894531 182.292969 86.894531 C 181.648438 86.894531 181.121094 87.4375 181.121094 88.109375 C 181.121094 88.6875 181.515625 89.171875 182.039062 89.292969 C 181.816406 89.761719 181.386719 90.296875 180.570312 90.355469 C 179.085938 90.464844 178.226562 87.25 178.433594 86.324219 C 178.640625 85.394531 179.949219 85.324219 180.019531 86.144531 C 180.019531 86.144531 180.5 85.144531 179.640625 84.789062 C 179.140625 84.582031 178.746094 84.710938 178.5 84.855469 C 178.902344 84.5 179.617188 83.714844 179.8125 82.503906 C 179.8125 82.503906 178.5 82.574219 177.8125 83.894531 L 178.570312 81.253906 L 177.054688 78.253906 L 175.535156 81.253906 L 176.292969 83.894531 C 175.605469 82.574219 174.292969 82.503906 174.292969 82.503906 C 174.488281 83.714844 175.203125 84.5 175.605469 84.855469 C 175.359375 84.710938 174.964844 84.582031 174.464844 84.789062 C 173.605469 85.144531 174.085938 86.144531 174.085938 86.144531 C 174.15625 85.324219 175.464844 85.394531 175.671875 86.324219 C 175.878906 87.25 175.019531 90.464844 173.535156 90.355469 C 172.726562 90.300781 172.296875 89.769531 172.074219 89.304688 C 172.628906 89.207031 173.054688 88.710938 173.054688 88.109375 C 173.054688 87.4375 172.527344 86.894531 171.878906 86.894531 C 171.234375 86.894531 170.707031 87.4375 170.707031 88.109375 C 170.707031 88.710938 171.128906 89.207031 171.683594 89.304688 C 171.511719 89.816406 171.167969 90.398438 170.5 90.359375 C 169.328125 90.285156 167.847656 88.644531 167.050781 86.964844 C 166.257812 85.289062 166.742188 84.324219 167.675781 84.859375 C 168.605469 85.394531 167.742188 86.46875 167.742188 86.46875 C 167.742188 86.46875 169.226562 86.429688 168.675781 84.789062 C 168.121094 83.148438 165.914062 83.394531 165.914062 83.394531 C 167.292969 82.683594 167.398438 80.824219 167.398438 80.824219 C 166.121094 80.789062 165.191406 81.957031 165.191406 81.957031 L 167.050781 78.363281 L 166.570312 74.148438 C 166.570312 74.148438 162.988281 79.003906 164.085938 84.644531 C 165.464844 91.714844 170.226562 94.855469 170.226562 94.855469 Z M 198.261719 88.285156 C 198.261719 88.285156 199.65625 90.039062 199.507812 90.898438 C 199.359375 91.761719 198.4375 91.605469 198.261719 90.777344 C 198.082031 91.605469 197.160156 91.761719 197.015625 90.898438 C 196.867188 90.039062 198.261719 88.285156 198.261719 88.285156 Z M 187.675781 88.109375 C 187.675781 88.109375 189.070312 89.859375 188.921875 90.722656 C 188.773438 91.582031 187.851562 91.429688 187.675781 90.597656 C 187.496094 91.429688 186.574219 91.582031 186.425781 90.722656 C 186.277344 89.859375 187.675781 88.109375 187.675781 88.109375 Z M 177.085938 88.285156 C 177.085938 88.285156 178.484375 90.039062 178.335938 90.898438 C 178.1875 91.761719 177.265625 91.605469 177.085938 90.777344 C 176.910156 91.605469 175.988281 91.761719 175.839844 90.898438 C 175.691406 90.039062 177.085938 88.285156 177.085938 88.285156 Z M 177.085938 88.285156 " fill-opacity="1" fill-rule="nonzero"/></g><path fill="#000000" d="M 205.332031 97.070312 C 205.722656 97.070312 206.042969 96.75 206.042969 96.359375 C 206.042969 95.96875 205.722656 95.648438 205.332031 95.648438 L 170.019531 95.648438 C 169.625 95.648438 169.304688 95.96875 169.304688 96.359375 C 169.304688 96.75 169.625 97.070312 170.019531 97.070312 Z M 205.332031 97.070312 " fill-opacity="1" fill-rule="nonzero"/><path fill="#000000" d="M 169.027344 103.519531 L 206.320312 103.519531 C 206.320312 103.519531 206.964844 100.140625 205.320312 97.863281 L 170.03125 97.863281 C 168.382812 100.140625 169.027344 103.519531 169.027344 103.519531 Z M 198.246094 100.40625 C 198.5 100.40625 198.707031 100.609375 198.707031 100.867188 C 198.707031 101.121094 198.5 101.324219 198.246094 101.324219 C 197.988281 101.324219 197.78125 101.121094 197.78125 100.867188 C 197.785156 100.609375 197.988281 100.40625 198.246094 100.40625 Z M 196.746094 100.242188 C 197.089844 100.242188 197.371094 100.519531 197.371094 100.867188 C 197.371094 101.210938 197.089844 101.492188 196.746094 101.492188 C 196.398438 101.492188 196.117188 101.210938 196.117188 100.867188 C 196.117188 100.519531 196.398438 100.242188 196.746094 100.242188 Z M 194.945312 100.070312 C 195.386719 100.070312 195.742188 100.425781 195.742188 100.863281 C 195.742188 101.304688 195.386719 101.660156 194.945312 101.660156 C 194.507812 101.660156 194.148438 101.304688 194.148438 100.863281 C 194.148438 100.425781 194.507812 100.070312 194.945312 100.070312 Z M 190.882812 100.863281 C 191.417969 100.503906 191.875 99.785156 191.488281 99.46875 C 191.105469 99.152344 190.746094 99.605469 190.746094 99.605469 C 190.636719 98.976562 191.460938 98.535156 191.929688 99.085938 C 192.398438 99.632812 191.902344 100.550781 191.902344 100.550781 L 192.644531 100.238281 L 193.828125 100.863281 L 192.644531 101.492188 L 191.902344 101.179688 C 191.902344 101.179688 192.398438 102.097656 191.929688 102.644531 C 191.460938 103.195312 190.636719 102.753906 190.746094 102.121094 C 190.746094 102.121094 191.105469 102.574219 191.488281 102.261719 C 191.875 101.945312 191.417969 101.226562 190.882812 100.863281 Z M 189.480469 99.726562 C 189.75 99.726562 189.964844 99.945312 189.964844 100.210938 C 189.964844 100.476562 189.75 100.691406 189.480469 100.691406 C 189.214844 100.691406 188.996094 100.476562 188.996094 100.210938 C 188.996094 99.945312 189.214844 99.726562 189.480469 99.726562 Z M 185.867188 99.726562 C 186.136719 99.726562 186.351562 99.945312 186.351562 100.210938 C 186.351562 100.476562 186.136719 100.691406 185.867188 100.691406 C 185.601562 100.691406 185.382812 100.476562 185.382812 100.210938 C 185.382812 99.945312 185.601562 99.726562 185.867188 99.726562 Z M 185.351562 101.316406 C 186.070312 100.710938 187.265625 101.351562 187.265625 101.351562 L 186.855469 100.390625 L 187.671875 98.855469 L 188.492188 100.390625 L 188.082031 101.351562 C 188.082031 101.351562 189.277344 100.710938 189.996094 101.316406 C 190.710938 101.925781 190.136719 102.996094 189.3125 102.851562 C 189.3125 102.851562 189.90625 102.390625 189.492188 101.890625 C 189.082031 101.390625 188.144531 101.980469 187.671875 102.675781 C 187.203125 101.980469 186.265625 101.390625 185.851562 101.890625 C 185.441406 102.390625 186.03125 102.851562 186.03125 102.851562 C 185.210938 102.996094 184.636719 101.925781 185.351562 101.316406 Z M 182.703125 100.238281 L 183.449219 100.550781 C 183.449219 100.550781 182.953125 99.632812 183.417969 99.085938 C 183.886719 98.535156 184.714844 98.976562 184.605469 99.609375 C 184.605469 99.609375 184.246094 99.152344 183.859375 99.46875 C 183.476562 99.785156 183.929688 100.503906 184.464844 100.867188 C 183.929688 101.226562 183.476562 101.945312 183.859375 102.261719 C 184.246094 102.578125 184.605469 102.125 184.605469 102.125 C 184.714844 102.753906 183.886719 103.195312 183.417969 102.644531 C 182.953125 102.097656 183.449219 101.179688 183.449219 101.179688 L 182.703125 101.492188 L 181.519531 100.867188 Z M 180.402344 100.070312 C 180.84375 100.070312 181.199219 100.425781 181.199219 100.863281 C 181.199219 101.304688 180.84375 101.660156 180.402344 101.660156 C 179.960938 101.660156 179.605469 101.304688 179.605469 100.863281 C 179.605469 100.425781 179.960938 100.070312 180.402344 100.070312 Z M 178.605469 100.242188 C 178.949219 100.242188 179.230469 100.519531 179.230469 100.867188 C 179.230469 101.210938 178.949219 101.492188 178.605469 101.492188 C 178.257812 101.492188 177.976562 101.210938 177.976562 100.867188 C 177.976562 100.519531 178.257812 100.242188 178.605469 100.242188 Z M 177.105469 100.40625 C 177.359375 100.40625 177.566406 100.609375 177.566406 100.867188 C 177.566406 101.121094 177.359375 101.324219 177.105469 101.324219 C 176.851562 101.324219 176.644531 101.121094 176.644531 100.867188 C 176.644531 100.609375 176.847656 100.40625 177.105469 100.40625 Z M 177.105469 100.40625 " fill-opacity="1" fill-rule="nonzero"/><path fill="#000000" d="M 168.445312 104.640625 C 168.445312 104.914062 168.671875 105.136719 168.949219 105.136719 L 206.402344 105.136719 C 206.675781 105.136719 206.902344 104.914062 206.902344 104.640625 C 206.902344 104.363281 206.675781 104.140625 206.402344 104.140625 L 168.949219 104.140625 C 168.671875 104.136719 168.445312 104.363281 168.445312 104.640625 Z M 168.445312 104.640625 " fill-opacity="1" fill-rule="nonzero"/><path fill="#000000" d="M 182.539062 215.910156 C 179.835938 216.054688 177.527344 214.140625 176.511719 214.589844 C 175.5 215.039062 176.175781 215.910156 176.175781 215.910156 C 175.554688 215.941406 173.808594 214.925781 172.964844 215.152344 C 172.121094 215.375 172.515625 216.554688 172.515625 216.554688 C 172.515625 216.554688 170.261719 214.589844 169.136719 215.207031 C 168.011719 215.824219 169.136719 216.820312 169.136719 216.820312 C 167.167969 216.859375 164.464844 213.242188 166.265625 210.828125 C 168.066406 208.414062 170.714844 210.828125 169.8125 211.726562 C 168.910156 212.625 168.347656 213.746094 170.261719 214.027344 C 172.175781 214.308594 173.359375 210.714844 171.894531 208.804688 C 170.433594 206.898438 167.671875 207.628906 167.671875 207.628906 C 168.40625 207.457031 168.628906 206 166.996094 205.941406 C 165.363281 205.886719 163.898438 207.851562 163.898438 207.851562 C 164.238281 206.839844 163.054688 205.492188 161.871094 207.011719 C 160.691406 208.527344 162.210938 211.839844 162.210938 211.839844 C 159.847656 209.03125 157.761719 209.816406 156.863281 210.773438 C 155.960938 211.726562 154.214844 210.773438 154.214844 210.773438 C 155.285156 213.355469 157.085938 213.804688 158.832031 213.972656 C 160.578125 214.140625 162.078125 215.5625 162.078125 215.5625 C 159.601562 214.441406 157.425781 216.820312 157.425781 216.820312 C 160.726562 216.953125 160.125 217.660156 166.058594 219.453125 C 171.992188 221.253906 182.539062 215.910156 182.539062 215.910156 Z M 182.539062 215.910156 " fill-opacity="1" fill-rule="nonzero"/><path fill="#000000" d="M 177.886719 219.421875 C 175.859375 222.835938 173.390625 222 173.390625 222 C 175.835938 221.734375 177.554688 218.703125 177.554688 218.703125 C 175.109375 221.433594 168.695312 221.074219 168.695312 221.074219 C 170.480469 224.503906 173.984375 223.382812 173.984375 223.382812 C 172.371094 225.042969 173.257812 226.945312 173.257812 226.945312 C 174.910156 226.351562 175.703125 224.042969 175.703125 224.042969 C 175.890625 227.027344 180.199219 227.40625 180.199219 227.40625 C 177.421875 224.375 177.886719 219.421875 177.886719 219.421875 Z M 177.886719 219.421875 " fill-opacity="1" fill-rule="nonzero"/><path fill="#000000" d="M 164.507812 205.941406 C 165.6875 202.082031 159.023438 198.757812 157.570312 198.972656 C 156.117188 199.1875 156.710938 200.3125 156.710938 200.3125 C 156.710938 200.3125 155.042969 197.898438 153.859375 198.113281 C 152.675781 198.328125 153.269531 199.453125 153.269531 199.453125 C 153.269531 199.453125 151.28125 196.882812 150.203125 197.65625 C 149.128906 198.433594 150.097656 199.347656 150.097656 199.347656 C 145.902344 198.703125 145.203125 193.773438 147.136719 192.324219 C 149.074219 190.875 151.117188 192.109375 151.117188 192.109375 C 151.117188 192.109375 149.558594 191.679688 149.773438 193.71875 C 149.988281 195.757812 153.429688 195.542969 153.699219 193.34375 C 153.96875 191.144531 152.621094 189.429688 149.828125 189.375 C 147.03125 189.320312 142.40625 192.003906 144.183594 197.472656 C 145.957031 202.941406 153.324219 203.046875 158.96875 203.15625 C 164.613281 203.261719 164.507812 205.941406 164.507812 205.941406 Z M 164.507812 205.941406 " fill-opacity="1" fill-rule="nonzero"/><path fill="#000000" d="M 153.421875 208.40625 C 153.421875 208.40625 153.367188 207.121094 155.332031 205.941406 C 157.292969 204.761719 158.261719 206.855469 157.242188 207.710938 C 156.21875 208.570312 155.84375 207.710938 155.84375 207.710938 C 155.84375 207.710938 155.574219 209.050781 156.972656 209.050781 C 158.371094 209.050781 158.960938 208.085938 159.875 206.585938 C 160.789062 205.085938 162.511719 204.816406 163.640625 205.621094 C 163.796875 205.734375 162.726562 202.941406 156.648438 204.066406 C 150.574219 205.191406 147.023438 202.511719 147.023438 202.511719 C 147.023438 202.511719 147.992188 203.476562 148.152344 204.386719 C 148.3125 205.300781 150.195312 205.351562 150.195312 205.351562 C 150.195312 205.351562 148.851562 205.726562 148.691406 206.800781 C 148.527344 207.875 147.992188 208.195312 147.992188 208.195312 C 147.992188 208.195312 150.679688 208.9375 152.238281 206.640625 C 152.238281 206.640625 150.679688 206.695312 150.089844 207.335938 C 150.089844 207.335938 151.324219 205.890625 152.992188 205.941406 C 152.992188 205.941406 151.96875 207.296875 152.292969 208.308594 C 152.617188 209.320312 152.1875 209.964844 152.1875 209.964844 C 152.1875 209.964844 154.875 209.160156 155.332031 206.480469 C 155.332031 206.476562 153.996094 207.132812 153.421875 208.40625 Z M 153.421875 208.40625 " fill-opacity="1" fill-rule="nonzero"/><path fill="#000000" d="M 150.484375 186.824219 C 150.484375 186.824219 142.5 180.230469 142.984375 176.046875 C 143.46875 171.867188 143.144531 167.121094 139.355469 167.523438 C 135.5625 167.925781 136.929688 170.980469 136.929688 170.980469 C 136.601562 169.210938 139.675781 168.808594 139.839844 171.0625 C 140 173.3125 137.097656 175.082031 135.160156 172.910156 C 133.222656 170.738281 133.949219 166.796875 132.742188 166.394531 C 131.53125 165.992188 130.886719 167.199219 130.886719 167.199219 C 130.078125 164.789062 131.773438 160.847656 130.402344 160.203125 C 129.03125 159.558594 128.304688 161.167969 128.304688 161.167969 C 128.546875 158.59375 131.609375 157.386719 131.128906 155.699219 C 130.644531 154.011719 128.871094 154.976562 128.871094 154.976562 C 131.128906 150.953125 138.386719 152.5625 138.066406 155.777344 C 137.742188 158.996094 134.355469 156.101562 133.871094 159.316406 C 133.386719 162.535156 142.257812 164.785156 142.257812 155.777344 C 142.257812 146.769531 122.902344 141.945312 123.386719 160.445312 C 123.871094 178.941406 150.484375 188.109375 150.484375 188.109375 C 141.855469 184.25 140.484375 176.769531 140.484375 176.769531 C 142.742188 183.285156 150.484375 186.824219 150.484375 186.824219 Z M 150.484375 186.824219 " fill-opacity="1" fill-rule="nonzero"/><path fill="#000000" d="M 134.535156 186.855469 C 128.335938 189.976562 131.117188 197.65625 135.117188 197.65625 C 139.113281 197.65625 140.15625 194.597656 139.113281 193.441406 C 138.070312 192.285156 138.183594 193.265625 137.027344 194.597656 C 135.867188 195.925781 133.203125 195.058594 133.722656 192.632812 C 134.246094 190.207031 136.851562 190.261719 136.851562 190.261719 C 136.851562 190.261719 135.230469 190.894531 135.808594 191.734375 C 136.390625 192.574219 138.996094 190.496094 138.996094 190.496094 C 138.996094 190.496094 137.839844 191.707031 138.9375 192.054688 C 140.039062 192.402344 142.183594 189.742188 142.183594 189.742188 C 142.183594 189.742188 141.601562 191.015625 142.703125 191.074219 C 143.804688 191.132812 144.730469 188.53125 148.4375 188.589844 C 148.441406 188.589844 140.734375 183.734375 134.535156 186.855469 Z M 134.535156 186.855469 " fill-opacity="1" fill-rule="nonzero"/><g clip-path="url(#705399c4fb)"><path fill="#000000" d="M 131.261719 185.265625 C 132.875 186.558594 137.367188 184.082031 139.671875 184.320312 C 139.671875 184.320312 125.671875 179.03125 121.6875 165.371094 C 121.6875 165.371094 121.40625 169.589844 122.386719 171.945312 C 122.386719 171.945312 121.261719 171.25 120.011719 171.898438 C 118.757812 172.542969 117.925781 172.4375 117.925781 172.4375 C 117.925781 172.4375 119.429688 174.625 122.054688 174.816406 C 122.054688 174.816406 120.671875 175.519531 120.476562 176.855469 C 120.285156 178.195312 119.808594 178.75 119.808594 178.75 C 119.808594 178.75 122.574219 178.753906 124.066406 177.15625 C 124.066406 177.15625 123.144531 176.214844 121.476562 177.480469 C 121.476562 177.480469 122.730469 175.488281 124.710938 175.777344 C 124.710938 175.777344 123.421875 173.992188 121.316406 173.113281 C 121.316406 173.113281 126.027344 173.851562 126.253906 178.414062 C 126.484375 182.980469 122.785156 181.007812 123.960938 179.332031 C 123.960938 179.332031 122.195312 179.890625 123.3125 182.058594 C 124.429688 184.226562 128.050781 184.011719 128.683594 180.777344 C 128.683594 180.777344 128.3125 182.425781 129.257812 182.855469 C 130.203125 183.285156 131.324219 182.636719 131.324219 182.636719 C 131.324219 182.636719 129.652344 183.96875 131.261719 185.265625 Z M 131.261719 185.265625 " fill-opacity="1" fill-rule="nonzero"/></g><path fill="#000000" d="M 130.492188 129.085938 C 129.472656 139.484375 142.804688 149.246094 142.804688 149.246094 C 140.546875 144.847656 141.941406 139.488281 140.546875 137.128906 C 139.148438 134.769531 137.964844 137.554688 137.964844 137.554688 C 137.964844 137.554688 137.75 134.554688 136.351562 134.339844 C 134.953125 134.125 135.0625 136.699219 135.0625 136.699219 C 132.695312 134.019531 132.265625 126.726562 135.921875 125.304688 C 138.925781 124.140625 139.578125 126.511719 139.578125 126.511719 C 139.578125 126.511719 136.78125 125.332031 136.851562 128.226562 C 136.921875 131.125 142.480469 132.410156 143.234375 126.941406 C 143.984375 121.472656 131.511719 118.683594 130.492188 129.085938 Z M 130.492188 129.085938 " fill-opacity="1" fill-rule="nonzero"/><path fill="#000000" d="M 157.71875 111.125 C 163.519531 101.585938 151.070312 96.015625 148.207031 101.167969 C 145.34375 106.320312 150.917969 108.765625 152.835938 106.335938 C 154.75 103.90625 151.605469 103.132812 151.605469 103.132812 C 151.605469 103.132812 153.6875 101.519531 155.503906 104.433594 C 157.714844 107.976562 152.671875 113.933594 148.929688 114.714844 C 148.929688 114.714844 150.671875 112.585938 149.339844 111.878906 C 148.011719 111.167969 145.898438 113.597656 145.898438 113.597656 C 145.898438 113.597656 146.675781 110.460938 143.96875 111.585938 C 141.261719 112.707031 139.019531 118.179688 134.269531 120.496094 C 134.269531 120.496094 151.917969 120.660156 157.71875 111.125 Z M 157.71875 111.125 " fill-opacity="1" fill-rule="nonzero"/><path fill="#000000" d="M 123.902344 147.636719 C 127.128906 149.40625 129.789062 146.589844 129.066406 145.144531 C 128.339844 143.695312 127.53125 144.097656 126.726562 145.304688 C 125.917969 146.511719 124.140625 145.699219 125.070312 143.652344 C 126 141.605469 128.902344 141.84375 130.433594 142.890625 C 130.433594 142.890625 129.546875 143.292969 129.871094 144.097656 C 130.195312 144.902344 132.855469 144.742188 132.855469 144.742188 C 132.855469 144.742188 131.5625 145.222656 131.96875 146.027344 C 132.371094 146.832031 136.328125 145.949219 138.625 147.234375 C 138.625 147.234375 132.773438 138.789062 127.207031 139.113281 C 121.644531 139.433594 120.675781 145.867188 123.902344 147.636719 Z M 123.902344 147.636719 " fill-opacity="1" fill-rule="nonzero"/><path fill="#000000" d="M 142.777344 133.863281 C 142.777344 134.136719 142.722656 134.402344 142.617188 134.65625 C 142.511719 134.910156 142.363281 135.132812 142.167969 135.328125 C 141.972656 135.519531 141.75 135.671875 141.496094 135.773438 C 141.242188 135.878906 140.976562 135.933594 140.699219 135.933594 C 140.425781 135.933594 140.160156 135.878906 139.90625 135.773438 C 139.652344 135.671875 139.425781 135.519531 139.230469 135.328125 C 139.039062 135.132812 138.886719 134.910156 138.78125 134.65625 C 138.675781 134.402344 138.625 134.136719 138.625 133.863281 C 138.625 133.589844 138.675781 133.324219 138.78125 133.070312 C 138.886719 132.816406 139.039062 132.59375 139.230469 132.398438 C 139.425781 132.203125 139.652344 132.054688 139.90625 131.949219 C 140.160156 131.84375 140.425781 131.792969 140.699219 131.792969 C 140.976562 131.792969 141.242188 131.84375 141.496094 131.949219 C 141.75 132.054688 141.972656 132.203125 142.167969 132.398438 C 142.363281 132.59375 142.511719 132.816406 142.617188 133.070312 C 142.722656 133.324219 142.777344 133.589844 142.777344 133.863281 Z M 142.777344 133.863281 " fill-opacity="1" fill-rule="nonzero"/><path fill="#000000" d="M 131.265625 124.339844 C 131.265625 124.339844 125.863281 124.695312 123.777344 127.101562 C 123.777344 127.101562 126.160156 123.894531 130.765625 123.421875 C 130.765625 123.421875 125.765625 120.632812 123.246094 124.09375 C 120.722656 127.558594 118.570312 127.824219 118.570312 127.824219 C 118.570312 127.824219 126.71875 132.1875 131.265625 124.339844 Z M 131.265625 124.339844 " fill-opacity="1" fill-rule="nonzero"/><path fill="#000000" d="M 132.683594 122.144531 C 132.683594 122.144531 129.035156 118.160156 125.847656 118.035156 C 125.847656 118.035156 129.851562 117.890625 133.09375 121.183594 C 133.09375 121.183594 132.160156 115.546875 127.871094 115.746094 C 123.582031 115.941406 122.03125 114.429688 122.03125 114.429688 C 122.03125 114.429688 123.699219 123.503906 132.683594 122.144531 Z M 132.683594 122.144531 " fill-opacity="1" fill-rule="nonzero"/><path fill="#000000" d="M 135.347656 112.035156 C 133.558594 114.671875 134.621094 119.964844 134.621094 119.964844 C 141.039062 113.546875 134.695312 106.835938 134.695312 106.835938 C 134.695312 106.835938 134.996094 108.976562 132.296875 112.304688 C 129.601562 115.632812 133.601562 119.722656 133.601562 119.722656 C 132.859375 115.167969 135.347656 112.035156 135.347656 112.035156 Z M 135.347656 112.035156 " fill-opacity="1" fill-rule="nonzero"/><path fill="#000000" d="M 122.496094 139.078125 C 122.496094 139.078125 127.222656 136.230469 132.453125 139.59375 C 132.453125 139.59375 127.804688 134.417969 129.246094 128.546875 C 129.246094 128.546875 125.679688 131.683594 128.066406 135.761719 C 128.066406 135.761719 124.015625 135.199219 122.496094 139.078125 Z M 122.496094 139.078125 " fill-opacity="1" fill-rule="nonzero"/><path fill="#000000" d="M 136.136719 163.585938 C 135.261719 163.585938 134.550781 164.292969 134.550781 165.167969 C 134.550781 166.042969 135.261719 166.75 136.136719 166.75 C 137.011719 166.75 137.722656 166.042969 137.722656 165.167969 C 137.722656 164.292969 137.011719 163.585938 136.136719 163.585938 Z M 136.136719 163.585938 " fill-opacity="1" fill-rule="nonzero"/><path fill="#000000" d="M 123.546875 148.875 C 123.765625 149.09375 123.933594 149.339844 124.050781 149.625 C 124.167969 149.90625 124.226562 150.199219 124.226562 150.507812 C 124.226562 150.8125 124.167969 151.105469 124.050781 151.386719 C 123.933594 151.671875 123.765625 151.921875 123.546875 152.136719 C 123.332031 152.351562 123.082031 152.519531 122.796875 152.636719 C 122.515625 152.753906 122.21875 152.8125 121.914062 152.8125 C 121.605469 152.8125 121.3125 152.753906 121.027344 152.636719 C 120.746094 152.519531 120.496094 152.351562 120.277344 152.136719 C 120.0625 151.921875 119.894531 151.671875 119.777344 151.386719 C 119.660156 151.105469 119.601562 150.8125 119.601562 150.507812 C 119.601562 150.199219 119.660156 149.90625 119.777344 149.625 C 119.894531 149.339844 120.0625 149.09375 120.277344 148.875 C 120.496094 148.660156 120.746094 148.492188 121.027344 148.375 C 121.3125 148.257812 121.605469 148.199219 121.914062 148.199219 C 122.21875 148.199219 122.515625 148.257812 122.796875 148.375 C 123.082031 148.492188 123.332031 148.660156 123.546875 148.875 Z M 123.546875 148.875 " fill-opacity="1" fill-rule="nonzero"/><path fill="#000000" d="M 141.191406 110.660156 C 142.878906 110.660156 144.25 109.292969 144.25 107.609375 C 144.25 105.921875 142.878906 104.554688 141.191406 104.554688 C 139.5 104.554688 138.128906 105.921875 138.128906 107.609375 C 138.128906 109.292969 139.5 110.660156 141.191406 110.660156 Z M 141.191406 110.660156 " fill-opacity="1" fill-rule="nonzero"/><g clip-path="url(#16230f8696)"><path fill="#000000" d="M 193 217.578125 C 189.664062 216.234375 187.675781 218.808594 187.675781 218.808594 C 187.675781 218.808594 185.683594 216.234375 182.351562 217.578125 C 178.703125 219.042969 178.425781 223.851562 181.058594 224.816406 C 183.074219 225.554688 183.15625 223.742188 183.15625 223.742188 C 181.976562 224.4375 180.414062 221.703125 183.375 220.953125 C 186.332031 220.203125 187.351562 223.582031 186.167969 224.921875 C 185.027344 226.21875 185.691406 227.761719 185.738281 227.863281 C 185.195312 226.476562 183.589844 226.15625 183.050781 227.386719 C 182.515625 228.621094 185.257812 229.960938 185.257812 229.960938 C 181.816406 229.695312 181.976562 232.589844 181.976562 232.589844 C 182.621094 230.820312 186.277344 231.464844 184.988281 234.035156 C 183.695312 236.609375 187.675781 240.605469 187.675781 240.605469 C 187.675781 240.605469 191.65625 236.609375 190.363281 234.035156 C 189.074219 231.464844 192.730469 230.820312 193.375 232.589844 C 193.375 232.589844 193.539062 229.695312 190.097656 229.960938 C 190.097656 229.960938 192.839844 228.621094 192.300781 227.386719 C 191.765625 226.15625 190.15625 226.476562 189.617188 227.863281 C 189.660156 227.761719 190.328125 226.21875 189.183594 224.921875 C 188 223.582031 189.023438 220.203125 191.980469 220.953125 C 194.9375 221.703125 193.375 224.4375 192.195312 223.742188 C 192.195312 223.742188 192.277344 225.554688 194.292969 224.816406 C 196.921875 223.847656 196.648438 219.042969 193 217.578125 Z M 193 217.578125 " fill-opacity="1" fill-rule="nonzero"/></g><path fill="#000000" d="M 218.488281 210.773438 C 217.585938 209.816406 215.503906 209.03125 213.136719 211.839844 C 213.136719 211.839844 214.65625 208.527344 213.476562 207.011719 C 212.292969 205.496094 211.109375 206.839844 211.449219 207.851562 C 211.449219 207.851562 209.984375 205.886719 208.351562 205.941406 C 206.71875 206 206.941406 207.457031 207.675781 207.628906 C 207.675781 207.628906 204.914062 206.898438 203.453125 208.804688 C 201.988281 210.714844 203.171875 214.308594 205.085938 214.027344 C 207 213.746094 206.4375 212.625 205.535156 211.726562 C 204.632812 210.828125 207.28125 208.414062 209.082031 210.828125 C 210.882812 213.242188 208.183594 216.859375 206.210938 216.820312 C 206.210938 216.820312 207.335938 215.824219 206.210938 215.207031 C 205.085938 214.589844 202.832031 216.554688 202.832031 216.554688 C 202.832031 216.554688 203.226562 215.375 202.382812 215.152344 C 201.539062 214.925781 199.792969 215.941406 199.171875 215.910156 C 199.171875 215.910156 199.847656 215.039062 198.835938 214.589844 C 197.820312 214.140625 195.511719 216.054688 192.808594 215.910156 C 192.808594 215.910156 203.359375 221.253906 209.289062 219.457031 C 215.21875 217.660156 214.621094 216.953125 217.921875 216.820312 C 217.921875 216.820312 215.746094 214.441406 213.269531 215.5625 C 213.269531 215.5625 214.769531 214.140625 216.515625 213.972656 C 218.261719 213.804688 220.0625 213.355469 221.132812 210.773438 C 221.132812 210.773438 219.386719 211.726562 218.488281 210.773438 Z M 218.488281 210.773438 " fill-opacity="1" fill-rule="nonzero"/><path fill="#000000" d="M 197.792969 218.703125 C 197.792969 218.703125 199.515625 221.734375 201.960938 222 C 201.960938 222 199.492188 222.835938 197.464844 219.421875 C 197.464844 219.421875 197.925781 224.375 195.148438 227.40625 C 195.148438 227.40625 199.457031 227.027344 199.644531 224.042969 C 199.644531 224.042969 200.441406 226.351562 202.09375 226.945312 C 202.09375 226.945312 202.980469 225.042969 201.363281 223.382812 C 201.363281 223.382812 204.871094 224.503906 206.65625 221.074219 C 206.65625 221.074219 200.242188 221.433594 197.792969 218.703125 Z M 197.792969 218.703125 " fill-opacity="1" fill-rule="nonzero"/><path fill="#000000" d="M 225.523438 189.375 C 222.726562 189.429688 221.382812 191.144531 221.652344 193.34375 C 221.917969 195.542969 225.359375 195.753906 225.574219 193.71875 C 225.792969 191.679688 224.230469 192.109375 224.230469 192.109375 C 224.230469 192.109375 226.273438 190.875 228.210938 192.324219 C 230.148438 193.769531 229.445312 198.703125 225.253906 199.347656 C 225.253906 199.347656 226.21875 198.433594 225.144531 197.65625 C 224.070312 196.878906 222.082031 199.453125 222.082031 199.453125 C 222.082031 199.453125 222.671875 198.328125 221.488281 198.113281 C 220.304688 197.898438 218.640625 200.3125 218.640625 200.3125 C 218.640625 200.3125 219.230469 199.1875 217.777344 198.972656 C 216.328125 198.757812 209.660156 202.082031 210.84375 205.941406 C 210.84375 205.941406 210.734375 203.261719 216.382812 203.152344 C 222.027344 203.046875 229.394531 202.9375 231.167969 197.46875 C 232.941406 192.003906 228.316406 189.320312 225.523438 189.375 Z M 225.523438 189.375 " fill-opacity="1" fill-rule="nonzero"/><path fill="#000000" d="M 227.195312 204.386719 C 227.355469 203.476562 228.324219 202.511719 228.324219 202.511719 C 228.324219 202.511719 224.777344 205.191406 218.699219 204.066406 C 212.625 202.941406 211.550781 205.734375 211.710938 205.621094 C 212.839844 204.816406 214.558594 205.085938 215.472656 206.585938 C 216.386719 208.085938 216.980469 209.050781 218.375 209.050781 C 219.773438 209.050781 219.503906 207.710938 219.503906 207.710938 C 219.503906 207.710938 219.128906 208.566406 218.109375 207.710938 C 217.085938 206.851562 218.054688 204.761719 220.015625 205.941406 C 221.980469 207.121094 221.925781 208.40625 221.925781 208.40625 C 221.351562 207.132812 220.015625 206.476562 220.015625 206.476562 C 220.472656 209.15625 223.164062 209.960938 223.164062 209.960938 C 223.164062 209.960938 222.730469 209.316406 223.054688 208.308594 C 223.378906 207.296875 222.355469 205.941406 222.355469 205.941406 C 224.023438 205.886719 225.257812 207.335938 225.257812 207.335938 C 224.667969 206.691406 223.109375 206.636719 223.109375 206.636719 C 224.667969 208.9375 227.355469 208.191406 227.355469 208.191406 C 227.355469 208.191406 226.820312 207.871094 226.65625 206.796875 C 226.496094 205.726562 225.152344 205.351562 225.152344 205.351562 C 225.152344 205.351562 227.035156 205.300781 227.195312 204.386719 Z M 227.195312 204.386719 " fill-opacity="1" fill-rule="nonzero"/><path fill="#000000" d="M 224.863281 188.109375 C 224.863281 188.109375 251.480469 178.941406 251.964844 160.445312 C 252.449219 141.949219 233.089844 146.773438 233.089844 155.78125 C 233.089844 164.789062 241.960938 162.535156 241.480469 159.320312 C 240.996094 156.101562 237.605469 158.996094 237.285156 155.78125 C 236.960938 152.5625 244.222656 150.953125 246.480469 154.976562 C 246.480469 154.976562 244.703125 154.011719 244.222656 155.699219 C 243.738281 157.386719 246.800781 158.59375 247.042969 161.167969 C 247.042969 161.167969 246.320312 159.558594 244.949219 160.203125 C 243.574219 160.847656 245.269531 164.789062 244.464844 167.199219 C 244.464844 167.199219 243.816406 165.996094 242.609375 166.398438 C 241.398438 166.800781 242.125 170.738281 240.1875 172.910156 C 238.253906 175.082031 235.347656 173.3125 235.511719 171.0625 C 235.671875 168.808594 238.746094 169.210938 238.417969 170.980469 C 238.417969 170.980469 239.785156 167.925781 235.996094 167.523438 C 232.203125 167.121094 231.878906 171.867188 232.363281 176.046875 C 232.847656 180.230469 224.863281 186.824219 224.863281 186.824219 C 224.863281 186.824219 232.605469 183.285156 234.867188 176.773438 C 234.863281 176.769531 233.492188 184.25 224.863281 188.109375 Z M 224.863281 188.109375 " fill-opacity="1" fill-rule="nonzero"/><path fill="#000000" d="M 240.8125 186.855469 C 234.613281 183.734375 226.910156 188.589844 226.910156 188.589844 C 230.617188 188.53125 231.542969 191.132812 232.644531 191.074219 C 233.746094 191.015625 233.164062 189.742188 233.164062 189.742188 C 233.164062 189.742188 235.308594 192.402344 236.410156 192.054688 C 237.511719 191.707031 236.351562 190.496094 236.351562 190.496094 C 236.351562 190.496094 238.957031 192.574219 239.539062 191.734375 C 240.117188 190.894531 238.496094 190.261719 238.496094 190.261719 C 238.496094 190.261719 241.101562 190.207031 241.625 192.632812 C 242.144531 195.058594 239.480469 195.925781 238.320312 194.597656 C 237.164062 193.265625 237.277344 192.285156 236.234375 193.441406 C 235.191406 194.597656 236.234375 197.65625 240.234375 197.65625 C 244.230469 197.65625 247.011719 189.976562 240.8125 186.855469 Z M 240.8125 186.855469 " fill-opacity="1" fill-rule="nonzero"/><g clip-path="url(#668158beb2)"><path fill="#000000" d="M 257.421875 172.4375 C 257.421875 172.4375 256.59375 172.542969 255.339844 171.898438 C 254.085938 171.253906 252.960938 171.945312 252.960938 171.945312 C 253.941406 169.589844 253.660156 165.371094 253.660156 165.371094 C 249.675781 179.03125 235.679688 184.320312 235.679688 184.320312 C 237.980469 184.082031 242.476562 186.5625 244.085938 185.265625 C 245.695312 183.96875 244.023438 182.636719 244.023438 182.636719 C 244.023438 182.636719 245.148438 183.289062 246.089844 182.859375 C 247.035156 182.429688 246.667969 180.78125 246.667969 180.78125 C 247.296875 184.011719 250.917969 184.230469 252.035156 182.0625 C 253.152344 179.890625 251.386719 179.335938 251.386719 179.335938 C 252.5625 181.011719 248.863281 182.984375 249.09375 178.417969 C 249.324219 173.855469 254.035156 173.117188 254.035156 173.117188 C 251.925781 173.992188 250.636719 175.78125 250.636719 175.78125 C 252.617188 175.492188 253.871094 177.484375 253.871094 177.484375 C 252.203125 176.21875 251.285156 177.160156 251.285156 177.160156 C 252.777344 178.757812 255.539062 178.753906 255.539062 178.753906 C 255.539062 178.753906 255.0625 178.199219 254.871094 176.859375 C 254.675781 175.523438 253.292969 174.820312 253.292969 174.820312 C 255.921875 174.625 257.421875 172.4375 257.421875 172.4375 Z M 257.421875 172.4375 " fill-opacity="1" fill-rule="nonzero"/></g><path fill="#000000" d="M 232.117188 126.941406 C 232.867188 132.410156 238.425781 131.121094 238.496094 128.226562 C 238.566406 125.332031 235.769531 126.511719 235.769531 126.511719 C 235.769531 126.511719 236.425781 124.140625 239.425781 125.304688 C 243.085938 126.726562 242.652344 134.019531 240.289062 136.699219 C 240.289062 136.699219 240.394531 134.125 238.996094 134.339844 C 237.601562 134.550781 237.382812 137.554688 237.382812 137.554688 C 237.382812 137.554688 236.203125 134.765625 234.804688 137.125 C 233.40625 139.484375 234.804688 144.847656 232.546875 149.242188 C 232.546875 149.242188 245.878906 139.484375 244.855469 129.085938 C 243.839844 118.683594 231.363281 121.472656 232.117188 126.941406 Z M 232.117188 126.941406 " fill-opacity="1" fill-rule="nonzero"/><path fill="#000000" d="M 241.082031 120.496094 C 236.332031 118.179688 234.085938 112.710938 231.378906 111.585938 C 228.671875 110.460938 229.449219 113.597656 229.449219 113.597656 C 229.449219 113.597656 227.339844 111.167969 226.007812 111.878906 C 224.675781 112.585938 226.417969 114.714844 226.417969 114.714844 C 222.675781 113.933594 217.632812 107.980469 219.84375 104.433594 C 221.664062 101.519531 223.742188 103.132812 223.742188 103.132812 C 223.742188 103.132812 220.597656 103.90625 222.515625 106.335938 C 224.429688 108.765625 230.007812 106.320312 227.140625 101.167969 C 224.277344 96.015625 211.832031 101.585938 217.632812 111.125 C 223.433594 120.660156 241.082031 120.496094 241.082031 120.496094 Z M 241.082031 120.496094 " fill-opacity="1" fill-rule="nonzero"/><path fill="#000000" d="M 248.625 145.304688 C 247.816406 144.097656 247.011719 143.695312 246.285156 145.144531 C 245.558594 146.589844 248.21875 149.40625 251.445312 147.636719 C 254.671875 145.867188 253.703125 139.433594 248.140625 139.109375 C 242.574219 138.789062 236.722656 147.234375 236.722656 147.234375 C 239.019531 145.949219 242.976562 146.832031 243.378906 146.027344 C 243.78125 145.222656 242.492188 144.742188 242.492188 144.742188 C 242.492188 144.742188 245.15625 144.902344 245.476562 144.097656 C 245.800781 143.292969 244.910156 142.890625 244.910156 142.890625 C 246.445312 141.84375 249.347656 141.605469 250.277344 143.652344 C 251.210938 145.699219 249.429688 146.507812 248.625 145.304688 Z M 248.625 145.304688 " fill-opacity="1" fill-rule="nonzero"/><path fill="#000000" d="M 236.726562 133.863281 C 236.726562 134.136719 236.671875 134.402344 236.566406 134.65625 C 236.460938 134.910156 236.3125 135.132812 236.117188 135.328125 C 235.921875 135.519531 235.699219 135.671875 235.445312 135.773438 C 235.1875 135.878906 234.925781 135.933594 234.648438 135.933594 C 234.375 135.933594 234.109375 135.878906 233.855469 135.773438 C 233.601562 135.671875 233.375 135.519531 233.179688 135.328125 C 232.984375 135.132812 232.835938 134.910156 232.730469 134.65625 C 232.625 134.402344 232.574219 134.136719 232.574219 133.863281 C 232.574219 133.589844 232.625 133.324219 232.730469 133.070312 C 232.835938 132.816406 232.984375 132.59375 233.179688 132.398438 C 233.375 132.203125 233.601562 132.054688 233.855469 131.949219 C 234.109375 131.84375 234.375 131.792969 234.648438 131.792969 C 234.925781 131.792969 235.1875 131.84375 235.445312 131.949219 C 235.699219 132.054688 235.921875 132.203125 236.117188 132.398438 C 236.3125 132.59375 236.460938 132.816406 236.566406 133.070312 C 236.671875 133.324219 236.726562 133.589844 236.726562 133.863281 Z M 236.726562 133.863281 " fill-opacity="1" fill-rule="nonzero"/><path fill="#000000" d="M 244.585938 123.421875 C 249.1875 123.894531 251.574219 127.101562 251.574219 127.101562 C 249.488281 124.695312 244.085938 124.339844 244.085938 124.339844 C 248.632812 132.1875 256.78125 127.824219 256.78125 127.824219 C 256.78125 127.824219 254.628906 127.558594 252.105469 124.09375 C 249.582031 120.632812 244.585938 123.421875 244.585938 123.421875 Z M 244.585938 123.421875 " fill-opacity="1" fill-rule="nonzero"/><path fill="#000000" d="M 249.5 118.035156 C 246.3125 118.160156 242.664062 122.144531 242.664062 122.144531 C 251.648438 123.503906 253.316406 114.429688 253.316406 114.429688 C 253.316406 114.429688 251.765625 115.941406 247.476562 115.746094 C 243.1875 115.546875 242.253906 121.183594 242.253906 121.183594 C 245.5 117.890625 249.5 118.035156 249.5 118.035156 Z M 249.5 118.035156 " fill-opacity="1" fill-rule="nonzero"/><path fill="#000000" d="M 240.003906 112.035156 C 240.003906 112.035156 242.488281 115.167969 241.75 119.722656 C 241.75 119.722656 245.75 115.636719 243.050781 112.304688 C 240.351562 108.976562 240.65625 106.835938 240.65625 106.835938 C 240.65625 106.835938 234.3125 113.546875 240.730469 119.964844 C 240.726562 119.964844 241.789062 114.671875 240.003906 112.035156 Z M 240.003906 112.035156 " fill-opacity="1" fill-rule="nonzero"/><path fill="#000000" d="M 252.851562 139.078125 C 251.332031 135.199219 247.285156 135.761719 247.285156 135.761719 C 249.667969 131.683594 246.101562 128.546875 246.101562 128.546875 C 247.542969 134.417969 242.898438 139.59375 242.898438 139.59375 C 248.128906 136.230469 252.851562 139.078125 252.851562 139.078125 Z M 252.851562 139.078125 " fill-opacity="1" fill-rule="nonzero"/><path fill="#000000" d="M 240.800781 165.167969 C 240.800781 164.292969 240.089844 163.585938 239.214844 163.585938 C 238.335938 163.585938 237.625 164.292969 237.625 165.167969 C 237.625 166.042969 238.335938 166.75 239.214844 166.75 C 240.089844 166.75 240.800781 166.042969 240.800781 165.167969 Z M 240.800781 165.167969 " fill-opacity="1" fill-rule="nonzero"/><path fill="#000000" d="M 255.066406 148.878906 C 255.285156 149.09375 255.453125 149.34375 255.570312 149.625 C 255.6875 149.90625 255.746094 150.203125 255.746094 150.507812 C 255.746094 150.8125 255.6875 151.105469 255.570312 151.390625 C 255.453125 151.671875 255.285156 151.921875 255.070312 152.136719 C 254.851562 152.355469 254.601562 152.519531 254.316406 152.636719 C 254.035156 152.753906 253.738281 152.8125 253.433594 152.8125 C 253.125 152.8125 252.832031 152.753906 252.546875 152.636719 C 252.265625 152.519531 252.015625 152.355469 251.796875 152.136719 C 251.582031 151.921875 251.414062 151.671875 251.296875 151.390625 C 251.179688 151.105469 251.121094 150.8125 251.121094 150.507812 C 251.121094 150.203125 251.179688 149.90625 251.296875 149.625 C 251.414062 149.34375 251.582031 149.09375 251.796875 148.878906 C 252.015625 148.660156 252.265625 148.496094 252.546875 148.378906 C 252.832031 148.261719 253.125 148.203125 253.433594 148.203125 C 253.738281 148.203125 254.035156 148.261719 254.316406 148.378906 C 254.601562 148.496094 254.851562 148.660156 255.066406 148.878906 Z M 255.066406 148.878906 " fill-opacity="1" fill-rule="nonzero"/><path fill="#000000" d="M 235.332031 104.785156 C 235.707031 104.941406 236.039062 105.160156 236.324219 105.445312 C 236.613281 105.734375 236.832031 106.0625 236.988281 106.4375 C 237.144531 106.8125 237.222656 107.199219 237.222656 107.605469 C 237.222656 108.011719 237.144531 108.398438 236.988281 108.773438 C 236.832031 109.148438 236.613281 109.476562 236.324219 109.765625 C 236.039062 110.050781 235.707031 110.269531 235.332031 110.425781 C 234.957031 110.582031 234.566406 110.65625 234.160156 110.65625 C 233.753906 110.65625 233.363281 110.582031 232.988281 110.425781 C 232.613281 110.269531 232.28125 110.050781 231.996094 109.765625 C 231.707031 109.476562 231.484375 109.148438 231.332031 108.773438 C 231.175781 108.398438 231.097656 108.011719 231.097656 107.605469 C 231.097656 107.199219 231.175781 106.8125 231.332031 106.4375 C 231.484375 106.0625 231.707031 105.734375 231.996094 105.445312 C 232.28125 105.160156 232.613281 104.941406 232.988281 104.785156 C 233.363281 104.628906 233.753906 104.550781 234.160156 104.550781 C 234.566406 104.550781 234.957031 104.628906 235.332031 104.785156 Z M 235.332031 104.785156 " fill-opacity="1" fill-rule="nonzero"/><g clip-path="url(#f465e3ab8d)"><path fill="#000000" d="M 208.765625 135.035156 L 186.636719 143.132812 L 158.023438 132.667969 L 186.636719 122.152344 L 210.1875 130.777344 L 216.300781 130.777344 L 187.003906 120.050781 C 186.792969 119.945312 186.53125 119.945312 186.265625 120.050781 L 154.597656 131.667969 C 154.175781 131.828125 153.914062 132.195312 153.914062 132.667969 C 153.914062 133.140625 154.175781 133.511719 154.597656 133.667969 L 167.613281 138.453125 L 167.613281 151.019531 C 167.613281 151.597656 167.613281 152.648438 175.675781 156.117188 C 177.519531 156.90625 183.683594 159.484375 186.476562 159.484375 C 189.324219 159.484375 195.59375 156.90625 197.4375 156.117188 C 205.605469 152.648438 205.605469 151.597656 205.605469 151.019531 L 205.605469 138.453125 L 214.878906 135.035156 C 214.878906 135.035156 208.765625 135.035156 208.765625 135.035156 Z M 203.496094 150.652344 C 201.757812 152.175781 189.847656 157.328125 186.476562 157.328125 C 183.210938 157.328125 171.460938 152.175781 169.71875 150.652344 L 169.71875 139.1875 L 186.265625 145.234375 C 186.371094 145.289062 186.53125 145.289062 186.636719 145.289062 C 186.742188 145.289062 186.898438 145.289062 187.003906 145.234375 L 203.550781 139.1875 Z M 203.496094 150.652344 " fill-opacity="1" fill-rule="nonzero"/></g><g clip-path="url(#0c6b1b1bc7)"><path fill="#000000" d="M 221.253906 151.914062 C 221.097656 151.230469 220.9375 150.492188 220.832031 149.808594 L 220.570312 147.707031 L 220.199219 145.601562 C 220.042969 144.8125 219.9375 144.078125 219.777344 143.289062 C 220.621094 143.027344 221.253906 142.238281 221.253906 141.292969 C 221.253906 140.292969 220.570312 139.453125 219.621094 139.242188 C 219.671875 139.136719 219.777344 139.082031 219.832031 138.976562 L 220.148438 138.558594 C 220.304688 138.398438 220.148438 138.242188 220.199219 138.136719 L 220.199219 132.929688 C 220.199219 132.351562 219.726562 131.878906 219.148438 131.878906 L 202.285156 131.878906 C 199.492188 131.933594 196.648438 131.773438 193.855469 132.089844 C 192.113281 132.25 190.375 132.40625 188.585938 132.5625 C 188.320312 132.144531 187.53125 131.828125 186.582031 131.828125 C 185.421875 131.828125 184.472656 132.300781 184.472656 132.878906 C 184.472656 133.457031 185.421875 133.929688 186.582031 133.929688 C 187.53125 133.929688 188.269531 133.613281 188.585938 133.195312 C 190.324219 133.351562 192.0625 133.5625 193.855469 133.667969 C 196.648438 134.035156 199.492188 133.878906 202.285156 133.878906 L 218.09375 133.878906 L 218.09375 138.03125 C 218.144531 138.191406 217.988281 138.347656 218.144531 138.453125 L 218.460938 138.871094 C 218.515625 138.976562 218.621094 139.03125 218.671875 139.136719 C 217.722656 139.347656 217.039062 140.1875 217.039062 141.1875 C 217.039062 142.132812 217.671875 142.921875 218.515625 143.183594 C 218.355469 143.972656 218.199219 144.710938 218.09375 145.496094 L 217.722656 147.601562 L 217.460938 149.703125 C 217.355469 150.386719 217.195312 151.125 217.039062 151.808594 C 216.882812 152.492188 216.882812 153.226562 217.039062 153.910156 C 217.144531 154.59375 217.355469 155.332031 217.671875 156.015625 C 217.988281 156.695312 218.355469 157.433594 218.9375 158.117188 L 219.359375 158.117188 C 219.9375 157.433594 220.359375 156.695312 220.621094 156.015625 C 220.9375 155.332031 221.097656 154.59375 221.253906 153.910156 C 221.414062 153.332031 221.414062 152.648438 221.253906 151.914062 Z M 221.253906 151.914062 " fill-opacity="1" fill-rule="nonzero"/></g><g clip-path="url(#0c4970af4d)"><path fill="#000000" d="M 213.929688 171.15625 C 213.457031 170.472656 212.507812 169.84375 211.71875 169.683594 C 190.007812 164.953125 161.816406 154.75 161.554688 154.699219 C 161.5 154.699219 161.394531 154.648438 161.34375 154.648438 C 161.238281 154.648438 158.179688 154.960938 157.074219 158.589844 C 156.652344 160.0625 156.496094 162.847656 158.707031 164.375 C 158.234375 164.585938 157.601562 164.898438 156.917969 165.058594 C 156.707031 165.109375 156.546875 165.320312 156.546875 165.582031 C 156.546875 165.847656 156.757812 166.054688 156.96875 166.054688 C 157.074219 166.054688 166.136719 167.6875 176.253906 170.839844 L 167.242188 173.679688 L 172.144531 173.996094 L 171.933594 176.46875 L 177.835938 173.679688 L 176.253906 178.621094 L 179.574219 177.78125 L 182.261719 179.621094 L 182.683594 172.996094 C 192.90625 176.730469 202.230469 181.304688 206.972656 185.039062 C 207.078125 185.089844 207.183594 185.140625 207.289062 185.140625 C 207.394531 185.140625 207.5 185.089844 207.605469 185.039062 C 207.605469 185.039062 209.925781 183.25 211.71875 181.828125 C 211.769531 181.777344 211.824219 181.726562 211.824219 181.671875 C 212.558594 181.042969 213.085938 180.199219 213.457031 179.359375 C 214.667969 176.941406 215.40625 173.257812 213.929688 171.15625 Z M 158.074219 158.851562 C 158.867188 156.222656 160.816406 155.75 161.34375 155.699219 C 162.394531 156.066406 170.035156 158.800781 180.046875 162.007812 C 178.679688 162.480469 177.570312 163.691406 176.941406 164.953125 C 176.359375 166.054688 175.886719 167.582031 176.148438 168.949219 C 166.453125 165.6875 160.289062 164.058594 160.183594 164.003906 C 156.96875 162.742188 158.023438 159.011719 158.074219 158.851562 Z M 207.394531 183.984375 C 203.707031 181.144531 198.28125 178.359375 192.640625 175.835938 C 197.804688 177.78125 203.390625 180.042969 209.1875 182.511719 L 209.242188 182.511719 C 208.449219 183.195312 207.765625 183.722656 207.394531 183.984375 Z M 212.613281 178.992188 C 212.191406 179.9375 211.03125 181.671875 209.714844 181.515625 C 209.03125 181.460938 208.714844 180.515625 208.554688 179.9375 C 208.027344 178.097656 208.714844 175.519531 209.976562 174.152344 C 210.398438 173.734375 211.03125 173.257812 211.558594 173.257812 C 211.824219 173.257812 212.03125 173.363281 212.242188 173.628906 C 213.035156 174.519531 212.558594 176.992188 211.824219 178.097656 C 211.507812 178.570312 211.03125 178.886719 210.609375 178.992188 C 210.347656 179.042969 210.136719 178.992188 209.976562 178.832031 C 209.660156 178.570312 209.503906 178.097656 209.554688 177.570312 C 209.609375 176.886719 209.976562 176.308594 210.398438 176.097656 L 210.453125 176.097656 C 210.503906 176.152344 210.503906 176.308594 210.453125 176.519531 C 210.347656 176.78125 210.558594 177.097656 210.820312 177.148438 C 211.085938 177.253906 211.402344 177.046875 211.453125 176.78125 C 211.613281 176.152344 211.507812 175.574219 211.085938 175.257812 C 210.925781 175.152344 210.503906 174.890625 209.871094 175.203125 C 209.136719 175.625 208.554688 176.519531 208.449219 177.519531 C 208.34375 178.414062 208.660156 179.253906 209.242188 179.726562 C 209.660156 180.042969 210.1875 180.199219 210.714844 180.09375 C 211.453125 179.988281 212.191406 179.464844 212.664062 178.726562 C 212.664062 178.675781 212.71875 178.675781 212.71875 178.621094 C 212.71875 178.726562 212.664062 178.886719 212.613281 178.992188 Z M 213.667969 174.730469 C 213.613281 174.046875 213.402344 173.417969 212.980469 172.996094 C 212.558594 172.523438 212.085938 172.3125 211.507812 172.261719 C 211.507812 172.261719 211.507812 172.261719 211.453125 172.261719 C 210.347656 172.261719 209.449219 173.101562 209.082031 173.46875 C 207.554688 175.101562 206.816406 178.097656 207.394531 180.253906 C 207.449219 180.460938 207.5 180.621094 207.554688 180.777344 C 198.492188 176.941406 190.007812 173.734375 182.839844 171.207031 C 182.367188 169.84375 183 168.265625 183.632812 167.054688 C 184.316406 165.792969 185.421875 164.53125 186.847656 164.109375 C 194.800781 166.53125 203.550781 168.949219 211.453125 170.683594 C 211.980469 170.789062 212.71875 171.261719 213.035156 171.734375 C 213.5625 172.472656 213.773438 173.523438 213.667969 174.730469 Z M 213.667969 174.730469 " fill-opacity="1" fill-rule="nonzero"/></g><g clip-path="url(#23c973aecf)"><path fill="#000000" d="M 187.519531 185.050781 L 190.214844 190.519531 L 196.25 191.394531 L 191.882812 195.65625 L 192.914062 201.664062 L 187.519531 198.828125 L 182.117188 201.664062 L 183.148438 195.65625 L 178.78125 191.394531 L 184.816406 190.519531 Z M 187.519531 185.050781 " fill-opacity="1" fill-rule="nonzero"/><path fill="#000000" d="M 187.476562 185 L 190.175781 190.46875 L 196.210938 191.34375 L 191.84375 195.601562 L 192.875 201.613281 L 187.476562 198.777344 L 182.078125 201.613281 L 183.109375 195.601562 L 178.742188 191.34375 L 184.773438 190.46875 Z M 187.476562 185 " fill-opacity="1" fill-rule="nonzero"/><path fill="#000000" d="M 187.476562 185 L 190.175781 190.46875 L 196.210938 191.34375 L 191.84375 195.601562 L 192.875 201.613281 L 187.476562 198.777344 L 182.078125 201.613281 L 183.109375 195.601562 L 178.742188 191.34375 L 184.773438 190.46875 Z M 187.476562 185 " fill-opacity="1" fill-rule="nonzero"/><path fill="#000000" d="M 187.476562 185 L 190.175781 190.46875 L 196.210938 191.34375 L 191.84375 195.601562 L 192.875 201.613281 L 187.476562 198.777344 L 182.078125 201.613281 L 183.109375 195.601562 L 178.742188 191.34375 L 184.773438 190.46875 Z M 187.476562 185 " fill-opacity="1" fill-rule="nonzero"/></g><g fill="#000000" fill-opacity="1"><g transform="translate(85.242357, 264.868871)"><g><path d="M 14.765625 -18.171875 L 20.5 -18.171875 L 20.5 -18.0625 C 19.789062 -17.90625 19.148438 -17.671875 18.578125 -17.359375 C 18.003906 -17.046875 17.441406 -16.429688 16.890625 -15.515625 L 12.203125 -7.765625 L 12.203125 -1.484375 C 12.203125 -1.015625 12.40625 -0.6875 12.8125 -0.5 C 13.226562 -0.320312 13.769531 -0.195312 14.4375 -0.125 L 14.4375 0 L 6.40625 0 L 6.40625 -0.125 C 7.0625 -0.195312 7.597656 -0.320312 8.015625 -0.5 C 8.429688 -0.6875 8.640625 -1.015625 8.640625 -1.484375 L 8.640625 -7.234375 L 3.140625 -15.8125 C 2.648438 -16.570312 2.175781 -17.117188 1.71875 -17.453125 C 1.257812 -17.785156 0.816406 -17.988281 0.390625 -18.0625 L 0.390625 -18.171875 L 5.6875 -18.171875 L 7.078125 -15.8125 L 11.890625 -8.25 L 16.25 -15.546875 C 16.625 -16.171875 16.789062 -16.644531 16.75 -16.96875 C 16.707031 -17.300781 16.507812 -17.546875 16.15625 -17.703125 C 15.800781 -17.859375 15.335938 -17.976562 14.765625 -18.0625 Z M 14.765625 -18.171875 "/></g></g></g><g fill="#000000" fill-opacity="1"><g transform="translate(106.13423, 264.868871)"><g><path d="M 11.1875 -18.53125 C 12.582031 -18.53125 13.882812 -18.3125 15.09375 -17.875 C 16.3125 -17.445312 17.375 -16.820312 18.28125 -16 C 19.1875 -15.175781 19.894531 -14.179688 20.40625 -13.015625 C 20.914062 -11.847656 21.171875 -10.535156 21.171875 -9.078125 C 21.171875 -7.628906 20.914062 -6.320312 20.40625 -5.15625 C 19.894531 -3.988281 19.1875 -2.992188 18.28125 -2.171875 C 17.375 -1.347656 16.3125 -0.71875 15.09375 -0.28125 C 13.882812 0.144531 12.582031 0.359375 11.1875 0.359375 C 9.769531 0.359375 8.453125 0.144531 7.234375 -0.28125 C 6.023438 -0.71875 4.96875 -1.347656 4.0625 -2.171875 C 3.15625 -2.992188 2.445312 -3.988281 1.9375 -5.15625 C 1.425781 -6.320312 1.171875 -7.628906 1.171875 -9.078125 C 1.171875 -10.535156 1.425781 -11.847656 1.9375 -13.015625 C 2.445312 -14.179688 3.15625 -15.175781 4.0625 -16 C 4.96875 -16.820312 6.023438 -17.445312 7.234375 -17.875 C 8.453125 -18.3125 9.769531 -18.53125 11.1875 -18.53125 Z M 12.28125 -0.109375 C 13.3125 -0.109375 14.210938 -0.414062 14.984375 -1.03125 C 15.753906 -1.644531 16.351562 -2.492188 16.78125 -3.578125 C 17.207031 -4.671875 17.421875 -5.9375 17.421875 -7.375 C 17.421875 -8.664062 17.238281 -9.941406 16.875 -11.203125 C 16.519531 -12.472656 16.015625 -13.617188 15.359375 -14.640625 C 14.703125 -15.671875 13.921875 -16.5 13.015625 -17.125 C 12.117188 -17.75 11.132812 -18.0625 10.0625 -18.0625 C 9.03125 -18.0625 8.128906 -17.757812 7.359375 -17.15625 C 6.585938 -16.550781 5.988281 -15.703125 5.5625 -14.609375 C 5.144531 -13.515625 4.9375 -12.253906 4.9375 -10.828125 C 4.9375 -9.523438 5.113281 -8.238281 5.46875 -6.96875 C 5.820312 -5.695312 6.328125 -4.546875 6.984375 -3.515625 C 7.640625 -2.484375 8.414062 -1.65625 9.3125 -1.03125 C 10.21875 -0.414062 11.207031 -0.109375 12.28125 -0.109375 Z M 12.28125 -0.109375 "/></g></g></g><g fill="#000000" fill-opacity="1"><g transform="translate(128.479452, 264.868871)"><g><path d="M 9.890625 0.359375 C 9.316406 0.359375 8.691406 0.296875 8.015625 0.171875 C 7.335938 0.0546875 6.664062 -0.15625 6 -0.46875 C 5.34375 -0.78125 4.738281 -1.207031 4.1875 -1.75 C 3.644531 -2.289062 3.203125 -2.984375 2.859375 -3.828125 C 2.523438 -4.671875 2.359375 -5.6875 2.359375 -6.875 L 2.359375 -16.6875 C 2.359375 -17.15625 2.160156 -17.476562 1.765625 -17.65625 C 1.378906 -17.84375 0.921875 -17.96875 0.390625 -18.03125 L 0.390625 -18.171875 L 7.890625 -18.171875 L 7.890625 -18.03125 C 7.347656 -17.96875 6.882812 -17.84375 6.5 -17.65625 C 6.113281 -17.476562 5.921875 -17.15625 5.921875 -16.6875 L 5.921875 -6.5625 C 5.921875 -5.351562 6.078125 -4.359375 6.390625 -3.578125 C 6.703125 -2.796875 7.109375 -2.1875 7.609375 -1.75 C 8.109375 -1.3125 8.640625 -1.003906 9.203125 -0.828125 C 9.765625 -0.660156 10.296875 -0.578125 10.796875 -0.578125 C 11.398438 -0.578125 12.019531 -0.6875 12.65625 -0.90625 C 13.300781 -1.132812 13.898438 -1.488281 14.453125 -1.96875 C 15.003906 -2.457031 15.453125 -3.082031 15.796875 -3.84375 C 16.148438 -4.601562 16.328125 -5.53125 16.328125 -6.625 L 16.328125 -14.046875 C 16.328125 -15.078125 16.226562 -15.875 16.03125 -16.4375 C 15.84375 -17 15.582031 -17.398438 15.25 -17.640625 C 14.925781 -17.890625 14.539062 -18.03125 14.09375 -18.0625 L 14.09375 -18.1875 L 18.84375 -18.1875 L 18.84375 -18.0625 C 18.5 -18.03125 18.175781 -17.9375 17.875 -17.78125 C 17.570312 -17.625 17.328125 -17.304688 17.140625 -16.828125 C 16.960938 -16.347656 16.875 -15.59375 16.875 -14.5625 L 16.875 -6.921875 C 16.875 -5.347656 16.566406 -4.015625 15.953125 -2.921875 C 15.347656 -1.835938 14.519531 -1.019531 13.46875 -0.46875 C 12.414062 0.0820312 11.222656 0.359375 9.890625 0.359375 Z M 9.890625 0.359375 "/></g></g></g><g fill="#000000" fill-opacity="1"><g transform="translate(147.710356, 264.868871)"><g><path d="M 15.578125 -3.421875 C 16.085938 -2.734375 16.546875 -2.1875 16.953125 -1.78125 C 17.359375 -1.375 17.757812 -1.046875 18.15625 -0.796875 C 18.5625 -0.546875 18.988281 -0.304688 19.4375 -0.078125 L 19.4375 0 L 13.828125 0 L 13.828125 -0.4375 L 8.953125 -7.3125 L 5.921875 -7.3125 L 5.921875 -1.484375 C 5.921875 -1.015625 6.113281 -0.6875 6.5 -0.5 C 6.882812 -0.320312 7.347656 -0.195312 7.890625 -0.125 L 7.890625 0 L 0.390625 0 L 0.390625 -0.125 C 0.921875 -0.195312 1.378906 -0.320312 1.765625 -0.5 C 2.160156 -0.6875 2.359375 -1.015625 2.359375 -1.484375 L 2.359375 -16.6875 C 2.359375 -17.15625 2.160156 -17.476562 1.765625 -17.65625 C 1.378906 -17.84375 0.921875 -17.96875 0.390625 -18.03125 L 0.390625 -18.171875 L 10.171875 -18.171875 C 12.492188 -18.171875 14.296875 -17.773438 15.578125 -16.984375 C 16.859375 -16.203125 17.5 -14.960938 17.5 -13.265625 C 17.5 -11.960938 17.046875 -10.820312 16.140625 -9.84375 C 15.242188 -8.875 14.007812 -8.171875 12.4375 -7.734375 Z M 5.921875 -17.703125 L 5.921875 -8.328125 C 7.304688 -7.929688 8.679688 -7.734375 10.046875 -7.734375 C 10.929688 -7.734375 11.660156 -7.851562 12.234375 -8.09375 C 12.816406 -8.332031 13.253906 -8.773438 13.546875 -9.421875 C 13.835938 -10.078125 13.984375 -11.003906 13.984375 -12.203125 C 13.984375 -12.890625 13.914062 -13.554688 13.78125 -14.203125 C 13.65625 -14.859375 13.410156 -15.445312 13.046875 -15.96875 C 12.691406 -16.5 12.164062 -16.921875 11.46875 -17.234375 C 10.78125 -17.546875 9.878906 -17.703125 8.765625 -17.703125 Z M 5.921875 -17.703125 "/></g></g></g><g fill="#000000" fill-opacity="1"><g transform="translate(166.889364, 264.868871)"><g/></g></g><g fill="#000000" fill-opacity="1"><g transform="translate(172.07989, 264.868871)"><g><path d="M 9.140625 -10.84375 C 10.421875 -10.550781 11.460938 -10.1875 12.265625 -9.75 C 13.066406 -9.320312 13.679688 -8.847656 14.109375 -8.328125 C 14.546875 -7.804688 14.847656 -7.28125 15.015625 -6.75 C 15.179688 -6.226562 15.265625 -5.726562 15.265625 -5.25 C 15.265625 -4.1875 14.976562 -3.226562 14.40625 -2.375 C 13.832031 -1.53125 13.007812 -0.863281 11.9375 -0.375 C 10.863281 0.113281 9.566406 0.359375 8.046875 0.359375 C 6.472656 0.359375 5.085938 0.125 3.890625 -0.34375 C 2.703125 -0.820312 1.75 -1.398438 1.03125 -2.078125 L 3.421875 -5.859375 C 3.335938 -4.960938 3.445312 -4.15625 3.75 -3.4375 C 4.050781 -2.71875 4.476562 -2.109375 5.03125 -1.609375 C 5.582031 -1.109375 6.210938 -0.722656 6.921875 -0.453125 C 7.640625 -0.179688 8.359375 -0.046875 9.078125 -0.046875 C 9.835938 -0.046875 10.457031 -0.164062 10.9375 -0.40625 C 11.414062 -0.65625 11.785156 -0.960938 12.046875 -1.328125 C 12.304688 -1.703125 12.488281 -2.097656 12.59375 -2.515625 C 12.695312 -2.929688 12.75 -3.3125 12.75 -3.65625 C 12.75 -4.4375 12.5625 -5.046875 12.1875 -5.484375 C 11.8125 -5.929688 11.265625 -6.289062 10.546875 -6.5625 C 9.828125 -6.84375 8.953125 -7.101562 7.921875 -7.34375 C 6.234375 -7.738281 4.925781 -8.265625 4 -8.921875 C 3.082031 -9.585938 2.4375 -10.304688 2.0625 -11.078125 C 1.6875 -11.859375 1.5 -12.617188 1.5 -13.359375 C 1.5 -14.429688 1.785156 -15.351562 2.359375 -16.125 C 2.929688 -16.894531 3.734375 -17.488281 4.765625 -17.90625 C 5.796875 -18.320312 7.007812 -18.53125 8.40625 -18.53125 C 9.914062 -18.53125 11.207031 -18.300781 12.28125 -17.84375 C 13.363281 -17.382812 14.253906 -16.828125 14.953125 -16.171875 L 12.484375 -12.375 C 12.609375 -13.257812 12.535156 -14.054688 12.265625 -14.765625 C 11.992188 -15.472656 11.597656 -16.078125 11.078125 -16.578125 C 10.554688 -17.085938 9.953125 -17.472656 9.265625 -17.734375 C 8.585938 -18.003906 7.894531 -18.140625 7.1875 -18.140625 C 6.375 -18.140625 5.738281 -17.976562 5.28125 -17.65625 C 4.820312 -17.34375 4.503906 -16.941406 4.328125 -16.453125 C 4.160156 -15.972656 4.078125 -15.488281 4.078125 -15 C 4.078125 -14.101562 4.304688 -13.382812 4.765625 -12.84375 C 5.234375 -12.3125 5.851562 -11.894531 6.625 -11.59375 C 7.394531 -11.300781 8.234375 -11.050781 9.140625 -10.84375 Z M 9.140625 -10.84375 "/></g></g></g><g fill="#000000" fill-opacity="1"><g transform="translate(188.378154, 264.868871)"><g><path d="M 18.34375 -2.875 C 17.789062 -2 16.9375 -1.238281 15.78125 -0.59375 C 14.625 0.0390625 13.144531 0.359375 11.34375 0.359375 C 9.882812 0.359375 8.535156 0.128906 7.296875 -0.328125 C 6.066406 -0.796875 4.992188 -1.453125 4.078125 -2.296875 C 3.160156 -3.140625 2.445312 -4.132812 1.9375 -5.28125 C 1.425781 -6.425781 1.171875 -7.675781 1.171875 -9.03125 C 1.171875 -10.59375 1.476562 -11.960938 2.09375 -13.140625 C 2.71875 -14.328125 3.554688 -15.316406 4.609375 -16.109375 C 5.671875 -16.910156 6.847656 -17.515625 8.140625 -17.921875 C 9.441406 -18.328125 10.757812 -18.53125 12.09375 -18.53125 C 13.769531 -18.53125 15.148438 -18.253906 16.234375 -17.703125 C 17.316406 -17.160156 18.148438 -16.53125 18.734375 -15.8125 L 14.96875 -10.75 L 14.890625 -10.765625 C 15.242188 -11.671875 15.398438 -12.550781 15.359375 -13.40625 C 15.328125 -14.257812 15.125 -15.03125 14.75 -15.71875 C 14.382812 -16.414062 13.851562 -16.96875 13.15625 -17.375 C 12.46875 -17.78125 11.628906 -17.984375 10.640625 -17.984375 C 9.585938 -17.984375 8.632812 -17.71875 7.78125 -17.1875 C 6.9375 -16.664062 6.265625 -15.867188 5.765625 -14.796875 C 5.273438 -13.734375 5.03125 -12.390625 5.03125 -10.765625 C 5.03125 -9.453125 5.222656 -8.203125 5.609375 -7.015625 C 6.003906 -5.835938 6.554688 -4.789062 7.265625 -3.875 C 7.972656 -2.96875 8.820312 -2.253906 9.8125 -1.734375 C 10.800781 -1.210938 11.898438 -0.953125 13.109375 -0.953125 C 14.054688 -0.953125 15 -1.117188 15.9375 -1.453125 C 16.875 -1.796875 17.617188 -2.316406 18.171875 -3.015625 Z M 18.34375 -2.875 "/></g></g></g><g fill="#000000" fill-opacity="1"><g transform="translate(207.894548, 264.868871)"><g><path d="M 20.375 -18.03125 C 19.832031 -17.96875 19.367188 -17.84375 18.984375 -17.65625 C 18.597656 -17.476562 18.40625 -17.15625 18.40625 -16.6875 L 18.40625 -1.484375 C 18.40625 -1.015625 18.597656 -0.6875 18.984375 -0.5 C 19.367188 -0.320312 19.832031 -0.195312 20.375 -0.125 L 20.375 0 L 12.875 0 L 12.875 -0.125 C 13.40625 -0.195312 13.863281 -0.320312 14.25 -0.5 C 14.644531 -0.6875 14.84375 -1.015625 14.84375 -1.484375 L 14.84375 -8.75 L 5.921875 -8.75 L 5.921875 -1.484375 C 5.921875 -1.015625 6.113281 -0.6875 6.5 -0.5 C 6.882812 -0.320312 7.347656 -0.195312 7.890625 -0.125 L 7.890625 0 L 0.390625 0 L 0.390625 -0.125 C 0.921875 -0.195312 1.378906 -0.320312 1.765625 -0.5 C 2.160156 -0.6875 2.359375 -1.015625 2.359375 -1.484375 L 2.359375 -16.6875 C 2.359375 -17.15625 2.160156 -17.476562 1.765625 -17.65625 C 1.378906 -17.84375 0.921875 -17.96875 0.390625 -18.03125 L 0.390625 -18.171875 L 7.890625 -18.171875 L 7.890625 -18.03125 C 7.347656 -17.96875 6.882812 -17.84375 6.5 -17.65625 C 6.113281 -17.476562 5.921875 -17.15625 5.921875 -16.6875 L 5.921875 -9.1875 L 14.84375 -9.1875 L 14.84375 -16.6875 C 14.84375 -17.15625 14.644531 -17.476562 14.25 -17.65625 C 13.863281 -17.84375 13.40625 -17.96875 12.875 -18.03125 L 12.875 -18.171875 L 20.375 -18.171875 Z M 20.375 -18.03125 "/></g></g></g><g fill="#000000" fill-opacity="1"><g transform="translate(228.656672, 264.868871)"><g><path d="M 11.1875 -18.53125 C 12.582031 -18.53125 13.882812 -18.3125 15.09375 -17.875 C 16.3125 -17.445312 17.375 -16.820312 18.28125 -16 C 19.1875 -15.175781 19.894531 -14.179688 20.40625 -13.015625 C 20.914062 -11.847656 21.171875 -10.535156 21.171875 -9.078125 C 21.171875 -7.628906 20.914062 -6.320312 20.40625 -5.15625 C 19.894531 -3.988281 19.1875 -2.992188 18.28125 -2.171875 C 17.375 -1.347656 16.3125 -0.71875 15.09375 -0.28125 C 13.882812 0.144531 12.582031 0.359375 11.1875 0.359375 C 9.769531 0.359375 8.453125 0.144531 7.234375 -0.28125 C 6.023438 -0.71875 4.96875 -1.347656 4.0625 -2.171875 C 3.15625 -2.992188 2.445312 -3.988281 1.9375 -5.15625 C 1.425781 -6.320312 1.171875 -7.628906 1.171875 -9.078125 C 1.171875 -10.535156 1.425781 -11.847656 1.9375 -13.015625 C 2.445312 -14.179688 3.15625 -15.175781 4.0625 -16 C 4.96875 -16.820312 6.023438 -17.445312 7.234375 -17.875 C 8.453125 -18.3125 9.769531 -18.53125 11.1875 -18.53125 Z M 12.28125 -0.109375 C 13.3125 -0.109375 14.210938 -0.414062 14.984375 -1.03125 C 15.753906 -1.644531 16.351562 -2.492188 16.78125 -3.578125 C 17.207031 -4.671875 17.421875 -5.9375 17.421875 -7.375 C 17.421875 -8.664062 17.238281 -9.941406 16.875 -11.203125 C 16.519531 -12.472656 16.015625 -13.617188 15.359375 -14.640625 C 14.703125 -15.671875 13.921875 -16.5 13.015625 -17.125 C 12.117188 -17.75 11.132812 -18.0625 10.0625 -18.0625 C 9.03125 -18.0625 8.128906 -17.757812 7.359375 -17.15625 C 6.585938 -16.550781 5.988281 -15.703125 5.5625 -14.609375 C 5.144531 -13.515625 4.9375 -12.253906 4.9375 -10.828125 C 4.9375 -9.523438 5.113281 -8.238281 5.46875 -6.96875 C 5.820312 -5.695312 6.328125 -4.546875 6.984375 -3.515625 C 7.640625 -2.484375 8.414062 -1.65625 9.3125 -1.03125 C 10.21875 -0.414062 11.207031 -0.109375 12.28125 -0.109375 Z M 12.28125 -0.109375 "/></g></g></g><g fill="#000000" fill-opacity="1"><g transform="translate(251.001895, 264.868871)"><g><path d="M 11.1875 -18.53125 C 12.582031 -18.53125 13.882812 -18.3125 15.09375 -17.875 C 16.3125 -17.445312 17.375 -16.820312 18.28125 -16 C 19.1875 -15.175781 19.894531 -14.179688 20.40625 -13.015625 C 20.914062 -11.847656 21.171875 -10.535156 21.171875 -9.078125 C 21.171875 -7.628906 20.914062 -6.320312 20.40625 -5.15625 C 19.894531 -3.988281 19.1875 -2.992188 18.28125 -2.171875 C 17.375 -1.347656 16.3125 -0.71875 15.09375 -0.28125 C 13.882812 0.144531 12.582031 0.359375 11.1875 0.359375 C 9.769531 0.359375 8.453125 0.144531 7.234375 -0.28125 C 6.023438 -0.71875 4.96875 -1.347656 4.0625 -2.171875 C 3.15625 -2.992188 2.445312 -3.988281 1.9375 -5.15625 C 1.425781 -6.320312 1.171875 -7.628906 1.171875 -9.078125 C 1.171875 -10.535156 1.425781 -11.847656 1.9375 -13.015625 C 2.445312 -14.179688 3.15625 -15.175781 4.0625 -16 C 4.96875 -16.820312 6.023438 -17.445312 7.234375 -17.875 C 8.453125 -18.3125 9.769531 -18.53125 11.1875 -18.53125 Z M 12.28125 -0.109375 C 13.3125 -0.109375 14.210938 -0.414062 14.984375 -1.03125 C 15.753906 -1.644531 16.351562 -2.492188 16.78125 -3.578125 C 17.207031 -4.671875 17.421875 -5.9375 17.421875 -7.375 C 17.421875 -8.664062 17.238281 -9.941406 16.875 -11.203125 C 16.519531 -12.472656 16.015625 -13.617188 15.359375 -14.640625 C 14.703125 -15.671875 13.921875 -16.5 13.015625 -17.125 C 12.117188 -17.75 11.132812 -18.0625 10.0625 -18.0625 C 9.03125 -18.0625 8.128906 -17.757812 7.359375 -17.15625 C 6.585938 -16.550781 5.988281 -15.703125 5.5625 -14.609375 C 5.144531 -13.515625 4.9375 -12.253906 4.9375 -10.828125 C 4.9375 -9.523438 5.113281 -8.238281 5.46875 -6.96875 C 5.820312 -5.695312 6.328125 -4.546875 6.984375 -3.515625 C 7.640625 -2.484375 8.414062 -1.65625 9.3125 -1.03125 C 10.21875 -0.414062 11.207031 -0.109375 12.28125 -0.109375 Z M 12.28125 -0.109375 "/></g></g></g><g fill="#000000" fill-opacity="1"><g transform="translate(273.347117, 264.868871)"><g><path d="M 15.890625 -5.34375 L 15.984375 -5.296875 L 14.640625 0 L 14.484375 0.578125 L 13.59375 0 L 0.390625 0 L 0.390625 -0.125 C 0.921875 -0.320312 1.378906 -0.660156 1.765625 -1.140625 C 2.160156 -1.628906 2.359375 -2.21875 2.359375 -2.90625 L 2.359375 -16.6875 C 2.359375 -17.15625 2.160156 -17.476562 1.765625 -17.65625 C 1.378906 -17.84375 0.921875 -17.96875 0.390625 -18.03125 L 0.390625 -18.171875 L 8.15625 -18.171875 L 8.15625 -18.03125 C 7.488281 -17.96875 6.945312 -17.84375 6.53125 -17.65625 C 6.125 -17.476562 5.921875 -17.15625 5.921875 -16.6875 L 5.921875 -0.421875 L 7.921875 -0.421875 C 9.003906 -0.421875 9.925781 -0.53125 10.6875 -0.75 C 11.445312 -0.976562 12.109375 -1.296875 12.671875 -1.703125 C 13.234375 -2.117188 13.757812 -2.632812 14.25 -3.25 C 14.75 -3.863281 15.296875 -4.5625 15.890625 -5.34375 Z M 15.890625 -5.34375 "/></g></g></g><g fill="#000000" fill-opacity="1"><g transform="translate(104.933355, 284.372881)"><g><path d="M 0.703125 -3.09375 L 1.40625 -4.71875 L 2.328125 -4.609375 C 3.078125 -4.523438 3.664062 -4.484375 4.09375 -4.484375 C 4.53125 -4.492188 4.820312 -4.597656 4.96875 -4.796875 L 5.015625 -4.796875 L 4.3125 -3.171875 L 3.390625 -3.28125 C 2.648438 -3.363281 2.0625 -3.398438 1.625 -3.390625 C 1.1875 -3.390625 0.898438 -3.289062 0.765625 -3.09375 Z M 0.703125 -3.09375 "/></g></g></g><g fill="#000000" fill-opacity="1"><g transform="translate(110.652231, 284.372881)"><g><path d="M 8.015625 -9.859375 L 11.140625 -9.859375 L 11.140625 -9.8125 C 10.753906 -9.726562 10.40625 -9.597656 10.09375 -9.421875 C 9.78125 -9.253906 9.472656 -8.921875 9.171875 -8.421875 L 6.625 -4.21875 L 6.625 -0.796875 C 6.625 -0.546875 6.734375 -0.367188 6.953125 -0.265625 C 7.179688 -0.171875 7.476562 -0.109375 7.84375 -0.078125 L 7.84375 0 L 3.484375 0 L 3.484375 -0.078125 C 3.835938 -0.109375 4.125 -0.171875 4.34375 -0.265625 C 4.570312 -0.367188 4.6875 -0.546875 4.6875 -0.796875 L 4.6875 -3.9375 L 1.703125 -8.578125 C 1.441406 -8.992188 1.1875 -9.289062 0.9375 -9.46875 C 0.6875 -9.65625 0.445312 -9.769531 0.21875 -9.8125 L 0.21875 -9.859375 L 3.09375 -9.859375 L 3.84375 -8.578125 L 6.453125 -4.484375 L 8.828125 -8.4375 C 9.023438 -8.78125 9.113281 -9.039062 9.09375 -9.21875 C 9.070312 -9.394531 8.960938 -9.523438 8.765625 -9.609375 C 8.578125 -9.691406 8.328125 -9.757812 8.015625 -9.8125 Z M 8.015625 -9.859375 "/></g></g></g><g fill="#000000" fill-opacity="1"><g transform="translate(121.991368, 284.372881)"><g><path d="M 6.078125 -10.0625 C 6.835938 -10.0625 7.546875 -9.941406 8.203125 -9.703125 C 8.859375 -9.472656 9.429688 -9.132812 9.921875 -8.6875 C 10.421875 -8.238281 10.804688 -7.695312 11.078125 -7.0625 C 11.359375 -6.425781 11.5 -5.71875 11.5 -4.9375 C 11.5 -4.144531 11.359375 -3.429688 11.078125 -2.796875 C 10.804688 -2.160156 10.421875 -1.617188 9.921875 -1.171875 C 9.429688 -0.722656 8.859375 -0.378906 8.203125 -0.140625 C 7.546875 0.0859375 6.835938 0.203125 6.078125 0.203125 C 5.304688 0.203125 4.59375 0.0859375 3.9375 -0.140625 C 3.28125 -0.378906 2.703125 -0.722656 2.203125 -1.171875 C 1.710938 -1.617188 1.328125 -2.160156 1.046875 -2.796875 C 0.773438 -3.429688 0.640625 -4.144531 0.640625 -4.9375 C 0.640625 -5.71875 0.773438 -6.425781 1.046875 -7.0625 C 1.328125 -7.695312 1.710938 -8.238281 2.203125 -8.6875 C 2.703125 -9.132812 3.28125 -9.472656 3.9375 -9.703125 C 4.59375 -9.941406 5.304688 -10.0625 6.078125 -10.0625 Z M 6.671875 -0.0625 C 7.234375 -0.0625 7.722656 -0.226562 8.140625 -0.5625 C 8.554688 -0.894531 8.878906 -1.351562 9.109375 -1.9375 C 9.335938 -2.53125 9.453125 -3.21875 9.453125 -4 C 9.453125 -4.707031 9.351562 -5.40625 9.15625 -6.09375 C 8.96875 -6.78125 8.695312 -7.398438 8.34375 -7.953125 C 7.988281 -8.515625 7.566406 -8.960938 7.078125 -9.296875 C 6.585938 -9.640625 6.050781 -9.8125 5.46875 -9.8125 C 4.90625 -9.8125 4.414062 -9.644531 4 -9.3125 C 3.582031 -8.988281 3.253906 -8.53125 3.015625 -7.9375 C 2.785156 -7.34375 2.671875 -6.65625 2.671875 -5.875 C 2.671875 -5.164062 2.765625 -4.46875 2.953125 -3.78125 C 3.148438 -3.09375 3.425781 -2.46875 3.78125 -1.90625 C 4.144531 -1.351562 4.570312 -0.90625 5.0625 -0.5625 C 5.550781 -0.226562 6.085938 -0.0625 6.671875 -0.0625 Z M 6.671875 -0.0625 "/></g></g></g><g fill="#000000" fill-opacity="1"><g transform="translate(134.119312, 284.372881)"><g><path d="M 5.375 0.203125 C 5.0625 0.203125 4.722656 0.164062 4.359375 0.09375 C 3.992188 0.03125 3.628906 -0.0820312 3.265625 -0.25 C 2.898438 -0.414062 2.566406 -0.644531 2.265625 -0.9375 C 1.972656 -1.238281 1.734375 -1.617188 1.546875 -2.078125 C 1.367188 -2.535156 1.28125 -3.085938 1.28125 -3.734375 L 1.28125 -9.0625 C 1.28125 -9.3125 1.171875 -9.484375 0.953125 -9.578125 C 0.742188 -9.679688 0.5 -9.753906 0.21875 -9.796875 L 0.21875 -9.859375 L 4.28125 -9.859375 L 4.28125 -9.796875 C 3.988281 -9.753906 3.738281 -9.679688 3.53125 -9.578125 C 3.320312 -9.484375 3.21875 -9.3125 3.21875 -9.0625 L 3.21875 -3.5625 C 3.21875 -2.90625 3.300781 -2.363281 3.46875 -1.9375 C 3.632812 -1.519531 3.851562 -1.191406 4.125 -0.953125 C 4.394531 -0.710938 4.679688 -0.546875 4.984375 -0.453125 C 5.296875 -0.359375 5.585938 -0.3125 5.859375 -0.3125 C 6.191406 -0.3125 6.53125 -0.367188 6.875 -0.484375 C 7.226562 -0.609375 7.550781 -0.800781 7.84375 -1.0625 C 8.144531 -1.332031 8.390625 -1.671875 8.578125 -2.078125 C 8.765625 -2.492188 8.859375 -3 8.859375 -3.59375 L 8.859375 -7.625 C 8.859375 -8.1875 8.804688 -8.617188 8.703125 -8.921875 C 8.609375 -9.234375 8.46875 -9.453125 8.28125 -9.578125 C 8.101562 -9.710938 7.894531 -9.789062 7.65625 -9.8125 L 7.65625 -9.875 L 10.234375 -9.875 L 10.234375 -9.8125 C 10.046875 -9.789062 9.867188 -9.738281 9.703125 -9.65625 C 9.535156 -9.570312 9.398438 -9.398438 9.296875 -9.140625 C 9.203125 -8.878906 9.15625 -8.46875 9.15625 -7.90625 L 9.15625 -3.765625 C 9.15625 -2.910156 8.988281 -2.1875 8.65625 -1.59375 C 8.332031 -1 7.882812 -0.550781 7.3125 -0.25 C 6.738281 0.0507812 6.09375 0.203125 5.375 0.203125 Z M 5.375 0.203125 "/></g></g></g><g fill="#000000" fill-opacity="1"><g transform="translate(144.556953, 284.372881)"><g><path d="M 8.453125 -1.859375 C 8.734375 -1.484375 8.984375 -1.1875 9.203125 -0.96875 C 9.429688 -0.75 9.648438 -0.566406 9.859375 -0.421875 C 10.078125 -0.285156 10.3125 -0.160156 10.5625 -0.046875 L 10.5625 0 L 7.515625 0 L 7.515625 -0.234375 L 4.859375 -3.96875 L 3.21875 -3.96875 L 3.21875 -0.796875 C 3.21875 -0.546875 3.320312 -0.367188 3.53125 -0.265625 C 3.738281 -0.171875 3.988281 -0.109375 4.28125 -0.078125 L 4.28125 0 L 0.21875 0 L 0.21875 -0.078125 C 0.5 -0.109375 0.742188 -0.171875 0.953125 -0.265625 C 1.171875 -0.367188 1.28125 -0.546875 1.28125 -0.796875 L 1.28125 -9.0625 C 1.28125 -9.3125 1.171875 -9.484375 0.953125 -9.578125 C 0.742188 -9.679688 0.5 -9.753906 0.21875 -9.796875 L 0.21875 -9.859375 L 5.53125 -9.859375 C 6.78125 -9.859375 7.753906 -9.644531 8.453125 -9.21875 C 9.148438 -8.789062 9.5 -8.117188 9.5 -7.203125 C 9.5 -6.492188 9.253906 -5.875 8.765625 -5.34375 C 8.273438 -4.8125 7.601562 -4.429688 6.75 -4.203125 Z M 3.21875 -9.609375 L 3.21875 -4.53125 C 3.96875 -4.3125 4.710938 -4.203125 5.453125 -4.203125 C 5.929688 -4.203125 6.328125 -4.265625 6.640625 -4.390625 C 6.960938 -4.523438 7.203125 -4.769531 7.359375 -5.125 C 7.515625 -5.476562 7.59375 -5.976562 7.59375 -6.625 C 7.59375 -7 7.554688 -7.363281 7.484375 -7.71875 C 7.421875 -8.070312 7.289062 -8.390625 7.09375 -8.671875 C 6.894531 -8.960938 6.609375 -9.191406 6.234375 -9.359375 C 5.859375 -9.523438 5.367188 -9.609375 4.765625 -9.609375 Z M 3.21875 -9.609375 "/></g></g></g><g fill="#000000" fill-opacity="1"><g transform="translate(154.966429, 284.372881)"><g/></g></g><g fill="#000000" fill-opacity="1"><g transform="translate(157.78361, 284.372881)"><g><path d="M 4.96875 -5.890625 C 5.65625 -5.734375 6.21875 -5.535156 6.65625 -5.296875 C 7.09375 -5.066406 7.425781 -4.804688 7.65625 -4.515625 C 7.894531 -4.234375 8.054688 -3.945312 8.140625 -3.65625 C 8.234375 -3.375 8.28125 -3.101562 8.28125 -2.84375 C 8.28125 -2.269531 8.125 -1.753906 7.8125 -1.296875 C 7.507812 -0.835938 7.066406 -0.472656 6.484375 -0.203125 C 5.898438 0.0664062 5.195312 0.203125 4.375 0.203125 C 3.519531 0.203125 2.765625 0.0703125 2.109375 -0.1875 C 1.460938 -0.445312 0.945312 -0.757812 0.5625 -1.125 L 1.859375 -3.1875 C 1.816406 -2.695312 1.875 -2.253906 2.03125 -1.859375 C 2.195312 -1.472656 2.429688 -1.144531 2.734375 -0.875 C 3.035156 -0.601562 3.378906 -0.394531 3.765625 -0.25 C 4.148438 -0.101562 4.539062 -0.03125 4.9375 -0.03125 C 5.34375 -0.03125 5.675781 -0.09375 5.9375 -0.21875 C 6.195312 -0.351562 6.394531 -0.519531 6.53125 -0.71875 C 6.675781 -0.925781 6.773438 -1.140625 6.828125 -1.359375 C 6.890625 -1.585938 6.921875 -1.796875 6.921875 -1.984375 C 6.921875 -2.410156 6.816406 -2.742188 6.609375 -2.984375 C 6.410156 -3.222656 6.113281 -3.414062 5.71875 -3.5625 C 5.332031 -3.71875 4.859375 -3.859375 4.296875 -3.984375 C 3.390625 -4.203125 2.679688 -4.488281 2.171875 -4.84375 C 1.671875 -5.207031 1.316406 -5.597656 1.109375 -6.015625 C 0.910156 -6.441406 0.8125 -6.859375 0.8125 -7.265625 C 0.8125 -7.835938 0.96875 -8.332031 1.28125 -8.75 C 1.59375 -9.175781 2.023438 -9.5 2.578125 -9.71875 C 3.140625 -9.945312 3.800781 -10.0625 4.5625 -10.0625 C 5.382812 -10.0625 6.085938 -9.9375 6.671875 -9.6875 C 7.253906 -9.4375 7.738281 -9.132812 8.125 -8.78125 L 6.78125 -6.71875 C 6.84375 -7.195312 6.800781 -7.628906 6.65625 -8.015625 C 6.507812 -8.398438 6.296875 -8.726562 6.015625 -9 C 5.734375 -9.28125 5.40625 -9.488281 5.03125 -9.625 C 4.664062 -9.769531 4.289062 -9.84375 3.90625 -9.84375 C 3.457031 -9.84375 3.109375 -9.753906 2.859375 -9.578125 C 2.617188 -9.410156 2.453125 -9.195312 2.359375 -8.9375 C 2.265625 -8.675781 2.21875 -8.410156 2.21875 -8.140625 C 2.21875 -7.648438 2.34375 -7.257812 2.59375 -6.96875 C 2.84375 -6.6875 3.175781 -6.460938 3.59375 -6.296875 C 4.019531 -6.140625 4.476562 -6.003906 4.96875 -5.890625 Z M 4.96875 -5.890625 "/></g></g></g><g fill="#000000" fill-opacity="1"><g transform="translate(166.629549, 284.372881)"><g><path d="M 8.625 -2.90625 L 8.6875 -2.875 L 7.953125 0 L 7.859375 0.3125 L 7.390625 0 L 0.21875 0 L 0.21875 -0.078125 C 0.5 -0.171875 0.742188 -0.347656 0.953125 -0.609375 C 1.171875 -0.878906 1.28125 -1.203125 1.28125 -1.578125 L 1.28125 -9.0625 C 1.28125 -9.3125 1.171875 -9.484375 0.953125 -9.578125 C 0.742188 -9.679688 0.5 -9.753906 0.21875 -9.796875 L 0.21875 -9.859375 L 4.421875 -9.859375 L 4.421875 -9.796875 C 4.066406 -9.753906 3.773438 -9.679688 3.546875 -9.578125 C 3.328125 -9.484375 3.21875 -9.3125 3.21875 -9.0625 L 3.21875 -0.21875 L 4.296875 -0.21875 C 4.890625 -0.21875 5.390625 -0.28125 5.796875 -0.40625 C 6.210938 -0.53125 6.570312 -0.703125 6.875 -0.921875 C 7.1875 -1.148438 7.472656 -1.429688 7.734375 -1.765625 C 8.003906 -2.097656 8.300781 -2.476562 8.625 -2.90625 Z M 8.625 -2.90625 "/></g></g></g><g fill="#000000" fill-opacity="1"><g transform="translate(175.517739, 284.372881)"><g><path d="M 6.078125 -10.0625 C 6.835938 -10.0625 7.546875 -9.941406 8.203125 -9.703125 C 8.859375 -9.472656 9.429688 -9.132812 9.921875 -8.6875 C 10.421875 -8.238281 10.804688 -7.695312 11.078125 -7.0625 C 11.359375 -6.425781 11.5 -5.71875 11.5 -4.9375 C 11.5 -4.144531 11.359375 -3.429688 11.078125 -2.796875 C 10.804688 -2.160156 10.421875 -1.617188 9.921875 -1.171875 C 9.429688 -0.722656 8.859375 -0.378906 8.203125 -0.140625 C 7.546875 0.0859375 6.835938 0.203125 6.078125 0.203125 C 5.304688 0.203125 4.59375 0.0859375 3.9375 -0.140625 C 3.28125 -0.378906 2.703125 -0.722656 2.203125 -1.171875 C 1.710938 -1.617188 1.328125 -2.160156 1.046875 -2.796875 C 0.773438 -3.429688 0.640625 -4.144531 0.640625 -4.9375 C 0.640625 -5.71875 0.773438 -6.425781 1.046875 -7.0625 C 1.328125 -7.695312 1.710938 -8.238281 2.203125 -8.6875 C 2.703125 -9.132812 3.28125 -9.472656 3.9375 -9.703125 C 4.59375 -9.941406 5.304688 -10.0625 6.078125 -10.0625 Z M 6.671875 -0.0625 C 7.234375 -0.0625 7.722656 -0.226562 8.140625 -0.5625 C 8.554688 -0.894531 8.878906 -1.351562 9.109375 -1.9375 C 9.335938 -2.53125 9.453125 -3.21875 9.453125 -4 C 9.453125 -4.707031 9.351562 -5.40625 9.15625 -6.09375 C 8.96875 -6.78125 8.695312 -7.398438 8.34375 -7.953125 C 7.988281 -8.515625 7.566406 -8.960938 7.078125 -9.296875 C 6.585938 -9.640625 6.050781 -9.8125 5.46875 -9.8125 C 4.90625 -9.8125 4.414062 -9.644531 4 -9.3125 C 3.582031 -8.988281 3.253906 -8.53125 3.015625 -7.9375 C 2.785156 -7.34375 2.671875 -6.65625 2.671875 -5.875 C 2.671875 -5.164062 2.765625 -4.46875 2.953125 -3.78125 C 3.148438 -3.09375 3.425781 -2.46875 3.78125 -1.90625 C 4.144531 -1.351562 4.570312 -0.90625 5.0625 -0.5625 C 5.550781 -0.226562 6.085938 -0.0625 6.671875 -0.0625 Z M 6.671875 -0.0625 "/></g></g></g><g fill="#000000" fill-opacity="1"><g transform="translate(187.645683, 284.372881)"><g><path d="M 11.609375 -4.25 C 11.316406 -4.21875 11.066406 -4.148438 10.859375 -4.046875 C 10.648438 -3.941406 10.546875 -3.765625 10.546875 -3.515625 L 10.546875 -0.796875 C 10.546875 -0.546875 10.648438 -0.367188 10.859375 -0.265625 C 11.066406 -0.171875 11.316406 -0.109375 11.609375 -0.078125 L 11.609375 0 L 8.421875 0 L 8.5625 -0.9375 C 8.238281 -0.601562 7.832031 -0.328125 7.34375 -0.109375 C 6.863281 0.0976562 6.3125 0.203125 5.6875 0.203125 C 5.019531 0.203125 4.382812 0.078125 3.78125 -0.171875 C 3.175781 -0.429688 2.632812 -0.789062 2.15625 -1.25 C 1.6875 -1.707031 1.316406 -2.25 1.046875 -2.875 C 0.773438 -3.5 0.640625 -4.175781 0.640625 -4.90625 C 0.640625 -5.75 0.804688 -6.492188 1.140625 -7.140625 C 1.484375 -7.785156 1.941406 -8.320312 2.515625 -8.75 C 3.085938 -9.1875 3.722656 -9.515625 4.421875 -9.734375 C 5.128906 -9.953125 5.84375 -10.0625 6.5625 -10.0625 C 7.488281 -10.0625 8.269531 -9.910156 8.90625 -9.609375 C 9.539062 -9.316406 10.019531 -8.972656 10.34375 -8.578125 L 8.296875 -5.84375 L 8.265625 -5.859375 C 8.453125 -6.347656 8.523438 -6.820312 8.484375 -7.28125 C 8.441406 -7.75 8.304688 -8.164062 8.078125 -8.53125 C 7.859375 -8.90625 7.546875 -9.195312 7.140625 -9.40625 C 6.742188 -9.625 6.269531 -9.734375 5.71875 -9.734375 C 5.15625 -9.734375 4.644531 -9.59375 4.1875 -9.3125 C 3.738281 -9.03125 3.382812 -8.601562 3.125 -8.03125 C 2.863281 -7.457031 2.734375 -6.726562 2.734375 -5.84375 C 2.734375 -5.132812 2.835938 -4.457031 3.046875 -3.8125 C 3.253906 -3.164062 3.539062 -2.59375 3.90625 -2.09375 C 4.28125 -1.601562 4.71875 -1.21875 5.21875 -0.9375 C 5.71875 -0.65625 6.269531 -0.515625 6.875 -0.515625 C 7.289062 -0.515625 7.632812 -0.578125 7.90625 -0.703125 C 8.1875 -0.828125 8.421875 -0.988281 8.609375 -1.1875 L 8.609375 -3.515625 C 8.609375 -3.679688 8.546875 -3.804688 8.421875 -3.890625 C 8.296875 -3.972656 8.035156 -4.03125 7.640625 -4.0625 C 7.253906 -4.101562 6.664062 -4.132812 5.875 -4.15625 L 6.15625 -4.328125 L 11.609375 -4.328125 Z M 11.609375 -4.25 "/></g></g></g><g fill="#000000" fill-opacity="1"><g transform="translate(199.393318, 284.372881)"><g><path d="M 10.015625 -1.78125 C 10.191406 -1.34375 10.34375 -1.003906 10.46875 -0.765625 C 10.601562 -0.523438 10.742188 -0.351562 10.890625 -0.25 C 11.035156 -0.144531 11.210938 -0.0820312 11.421875 -0.0625 L 11.421875 0 L 6.96875 0 L 6.96875 -0.0625 C 7.289062 -0.0820312 7.5625 -0.140625 7.78125 -0.234375 C 8 -0.335938 8.132812 -0.503906 8.1875 -0.734375 C 8.238281 -0.960938 8.179688 -1.28125 8.015625 -1.6875 L 7.734375 -2.390625 L 2.359375 -2.390625 L 2.046875 -1.6875 C 1.867188 -1.28125 1.800781 -0.96875 1.84375 -0.75 C 1.894531 -0.539062 2.015625 -0.382812 2.203125 -0.28125 C 2.390625 -0.1875 2.613281 -0.113281 2.875 -0.0625 L 2.875 0 L 0.28125 0 L 0.28125 -0.0625 C 0.476562 -0.113281 0.65625 -0.191406 0.8125 -0.296875 C 0.96875 -0.398438 1.117188 -0.554688 1.265625 -0.765625 C 1.410156 -0.984375 1.566406 -1.296875 1.734375 -1.703125 L 4.8125 -8.828125 L 4.796875 -9.234375 L 5.0625 -9.390625 L 6.71875 -10.28125 C 6.71875 -10.238281 6.734375 -10.15625 6.765625 -10.03125 C 6.804688 -9.90625 6.898438 -9.65625 7.046875 -9.28125 Z M 2.453125 -2.65625 L 7.640625 -2.65625 L 5.140625 -8.859375 Z M 2.453125 -2.65625 "/></g></g></g><g fill="#000000" fill-opacity="1"><g transform="translate(211.084601, 284.372881)"><g><path d="M 7.734375 -9.859375 L 10.140625 -9.859375 L 10.140625 -9.796875 C 9.953125 -9.773438 9.773438 -9.71875 9.609375 -9.625 C 9.453125 -9.539062 9.320312 -9.347656 9.21875 -9.046875 C 9.125 -8.753906 9.078125 -8.289062 9.078125 -7.65625 L 9.078125 -2.34375 C 9.078125 -1.601562 9.082031 -1.03125 9.09375 -0.625 C 9.113281 -0.21875 9.128906 0.109375 9.140625 0.359375 L 9.125 0.390625 L 1.703125 -8.40625 L 1.703125 -2.5 C 1.703125 -1.851562 1.75 -1.359375 1.84375 -1.015625 C 1.945312 -0.671875 2.082031 -0.429688 2.25 -0.296875 C 2.414062 -0.171875 2.59375 -0.0976562 2.78125 -0.078125 L 2.78125 0 L 0.359375 0 L 0.359375 -0.078125 C 0.546875 -0.0976562 0.71875 -0.148438 0.875 -0.234375 C 1.039062 -0.316406 1.171875 -0.503906 1.265625 -0.796875 C 1.367188 -1.097656 1.421875 -1.570312 1.421875 -2.21875 L 1.421875 -8.75 C 1.191406 -9.03125 0.976562 -9.257812 0.78125 -9.4375 C 0.582031 -9.613281 0.367188 -9.753906 0.140625 -9.859375 L 2.96875 -9.859375 C 3.019531 -9.796875 3.078125 -9.71875 3.140625 -9.625 C 3.210938 -9.539062 3.296875 -9.425781 3.390625 -9.28125 L 8.8125 -2.890625 L 8.8125 -7.375 C 8.8125 -8.007812 8.757812 -8.5 8.65625 -8.84375 C 8.5625 -9.1875 8.429688 -9.425781 8.265625 -9.5625 C 8.109375 -9.695312 7.929688 -9.773438 7.734375 -9.796875 Z M 7.734375 -9.859375 "/></g></g></g><g fill="#000000" fill-opacity="1"><g transform="translate(221.437727, 284.372881)"><g/></g></g><g fill="#000000" fill-opacity="1"><g transform="translate(224.254907, 284.372881)"><g><path d="M 11.0625 -9.796875 C 10.769531 -9.753906 10.519531 -9.679688 10.3125 -9.578125 C 10.101562 -9.484375 10 -9.3125 10 -9.0625 L 10 -0.796875 C 10 -0.546875 10.101562 -0.367188 10.3125 -0.265625 C 10.519531 -0.171875 10.769531 -0.109375 11.0625 -0.078125 L 11.0625 0 L 6.984375 0 L 6.984375 -0.078125 C 7.273438 -0.109375 7.523438 -0.171875 7.734375 -0.265625 C 7.953125 -0.367188 8.0625 -0.546875 8.0625 -0.796875 L 8.0625 -4.75 L 3.21875 -4.75 L 3.21875 -0.796875 C 3.21875 -0.546875 3.320312 -0.367188 3.53125 -0.265625 C 3.738281 -0.171875 3.988281 -0.109375 4.28125 -0.078125 L 4.28125 0 L 0.21875 0 L 0.21875 -0.078125 C 0.5 -0.109375 0.742188 -0.171875 0.953125 -0.265625 C 1.171875 -0.367188 1.28125 -0.546875 1.28125 -0.796875 L 1.28125 -9.0625 C 1.28125 -9.3125 1.171875 -9.484375 0.953125 -9.578125 C 0.742188 -9.679688 0.5 -9.753906 0.21875 -9.796875 L 0.21875 -9.859375 L 4.28125 -9.859375 L 4.28125 -9.796875 C 3.988281 -9.753906 3.738281 -9.679688 3.53125 -9.578125 C 3.320312 -9.484375 3.21875 -9.3125 3.21875 -9.0625 L 3.21875 -4.984375 L 8.0625 -4.984375 L 8.0625 -9.0625 C 8.0625 -9.3125 7.953125 -9.484375 7.734375 -9.578125 C 7.523438 -9.679688 7.273438 -9.753906 6.984375 -9.796875 L 6.984375 -9.859375 L 11.0625 -9.859375 Z M 11.0625 -9.796875 "/></g></g></g><g fill="#000000" fill-opacity="1"><g transform="translate(235.523618, 284.372881)"><g><path d="M 8.9375 -3 L 8.984375 -2.96875 L 8.25 0 L 8.15625 0.3125 L 7.6875 0 L 0.21875 0 L 0.21875 -0.078125 C 0.5 -0.171875 0.742188 -0.296875 0.953125 -0.453125 C 1.171875 -0.617188 1.28125 -0.828125 1.28125 -1.078125 L 1.28125 -9.0625 C 1.28125 -9.3125 1.171875 -9.484375 0.953125 -9.578125 C 0.742188 -9.679688 0.5 -9.753906 0.21875 -9.796875 L 0.21875 -9.859375 L 7.96875 -9.859375 L 8.484375 -7.390625 L 8.421875 -7.359375 C 8.066406 -7.878906 7.742188 -8.304688 7.453125 -8.640625 C 7.160156 -8.984375 6.828125 -9.234375 6.453125 -9.390625 C 6.085938 -9.554688 5.597656 -9.640625 4.984375 -9.640625 L 3.21875 -9.640625 L 3.21875 -5.046875 L 4.390625 -5.046875 C 4.972656 -5.046875 5.445312 -5.09375 5.8125 -5.1875 C 6.175781 -5.289062 6.457031 -5.460938 6.65625 -5.703125 C 6.863281 -5.953125 7.023438 -6.289062 7.140625 -6.71875 L 7.140625 -3.15625 C 7.023438 -3.59375 6.863281 -3.929688 6.65625 -4.171875 C 6.457031 -4.410156 6.175781 -4.578125 5.8125 -4.671875 C 5.445312 -4.765625 4.972656 -4.8125 4.390625 -4.8125 L 3.21875 -4.8125 L 3.21875 -0.21875 L 5.078125 -0.21875 C 5.679688 -0.21875 6.195312 -0.316406 6.625 -0.515625 C 7.0625 -0.722656 7.457031 -1.03125 7.8125 -1.4375 C 8.175781 -1.851562 8.550781 -2.375 8.9375 -3 Z M 8.9375 -3 "/></g></g></g><g fill="#000000" fill-opacity="1"><g transform="translate(244.721703, 284.372881)"><g><path d="M 8.453125 -1.859375 C 8.734375 -1.484375 8.984375 -1.1875 9.203125 -0.96875 C 9.429688 -0.75 9.648438 -0.566406 9.859375 -0.421875 C 10.078125 -0.285156 10.3125 -0.160156 10.5625 -0.046875 L 10.5625 0 L 7.515625 0 L 7.515625 -0.234375 L 4.859375 -3.96875 L 3.21875 -3.96875 L 3.21875 -0.796875 C 3.21875 -0.546875 3.320312 -0.367188 3.53125 -0.265625 C 3.738281 -0.171875 3.988281 -0.109375 4.28125 -0.078125 L 4.28125 0 L 0.21875 0 L 0.21875 -0.078125 C 0.5 -0.109375 0.742188 -0.171875 0.953125 -0.265625 C 1.171875 -0.367188 1.28125 -0.546875 1.28125 -0.796875 L 1.28125 -9.0625 C 1.28125 -9.3125 1.171875 -9.484375 0.953125 -9.578125 C 0.742188 -9.679688 0.5 -9.753906 0.21875 -9.796875 L 0.21875 -9.859375 L 5.53125 -9.859375 C 6.78125 -9.859375 7.753906 -9.644531 8.453125 -9.21875 C 9.148438 -8.789062 9.5 -8.117188 9.5 -7.203125 C 9.5 -6.492188 9.253906 -5.875 8.765625 -5.34375 C 8.273438 -4.8125 7.601562 -4.429688 6.75 -4.203125 Z M 3.21875 -9.609375 L 3.21875 -4.53125 C 3.96875 -4.3125 4.710938 -4.203125 5.453125 -4.203125 C 5.929688 -4.203125 6.328125 -4.265625 6.640625 -4.390625 C 6.960938 -4.523438 7.203125 -4.769531 7.359375 -5.125 C 7.515625 -5.476562 7.59375 -5.976562 7.59375 -6.625 C 7.59375 -7 7.554688 -7.363281 7.484375 -7.71875 C 7.421875 -8.070312 7.289062 -8.390625 7.09375 -8.671875 C 6.894531 -8.960938 6.609375 -9.191406 6.234375 -9.359375 C 5.859375 -9.523438 5.367188 -9.609375 4.765625 -9.609375 Z M 3.21875 -9.609375 "/></g></g></g><g fill="#000000" fill-opacity="1"><g transform="translate(255.131179, 284.372881)"><g><path d="M 8.9375 -3 L 8.984375 -2.96875 L 8.25 0 L 8.15625 0.3125 L 7.6875 0 L 0.21875 0 L 0.21875 -0.078125 C 0.5 -0.171875 0.742188 -0.296875 0.953125 -0.453125 C 1.171875 -0.617188 1.28125 -0.828125 1.28125 -1.078125 L 1.28125 -9.0625 C 1.28125 -9.3125 1.171875 -9.484375 0.953125 -9.578125 C 0.742188 -9.679688 0.5 -9.753906 0.21875 -9.796875 L 0.21875 -9.859375 L 7.96875 -9.859375 L 8.484375 -7.390625 L 8.421875 -7.359375 C 8.066406 -7.878906 7.742188 -8.304688 7.453125 -8.640625 C 7.160156 -8.984375 6.828125 -9.234375 6.453125 -9.390625 C 6.085938 -9.554688 5.597656 -9.640625 4.984375 -9.640625 L 3.21875 -9.640625 L 3.21875 -5.046875 L 4.390625 -5.046875 C 4.972656 -5.046875 5.445312 -5.09375 5.8125 -5.1875 C 6.175781 -5.289062 6.457031 -5.460938 6.65625 -5.703125 C 6.863281 -5.953125 7.023438 -6.289062 7.140625 -6.71875 L 7.140625 -3.15625 C 7.023438 -3.59375 6.863281 -3.929688 6.65625 -4.171875 C 6.457031 -4.410156 6.175781 -4.578125 5.8125 -4.671875 C 5.445312 -4.765625 4.972656 -4.8125 4.390625 -4.8125 L 3.21875 -4.8125 L 3.21875 -0.21875 L 5.078125 -0.21875 C 5.679688 -0.21875 6.195312 -0.316406 6.625 -0.515625 C 7.0625 -0.722656 7.457031 -1.03125 7.8125 -1.4375 C 8.175781 -1.851562 8.550781 -2.375 8.9375 -3 Z M 8.9375 -3 "/></g></g></g><g fill="#000000" fill-opacity="1"><g transform="translate(264.329265, 284.372881)"><g><path d="M 0.703125 -3.09375 L 1.40625 -4.71875 L 2.328125 -4.609375 C 3.078125 -4.523438 3.664062 -4.484375 4.09375 -4.484375 C 4.53125 -4.492188 4.820312 -4.597656 4.96875 -4.796875 L 5.015625 -4.796875 L 4.3125 -3.171875 L 3.390625 -3.28125 C 2.648438 -3.363281 2.0625 -3.398438 1.625 -3.390625 C 1.1875 -3.390625 0.898438 -3.289062 0.765625 -3.09375 Z M 0.703125 -3.09375 "/></g></g></g></svg>