<svg xmlns="http://www.w3.org/2000/svg" xmlns:xlink="http://www.w3.org/1999/xlink" width="500" zoomAndPan="magnify" viewBox="0 0 375 374.999991" height="500" preserveAspectRatio="xMidYMid meet" version="1.0"><defs><clipPath id="6b5231e7e9"><path d="M 4.167969 16.835938 L 370 16.835938 L 370 358 L 4.167969 358 Z M 4.167969 16.835938 " clip-rule="nonzero"/></clipPath></defs><g clip-path="url(#6b5231e7e9)"><path fill="#000000" d="M 348.625 186.578125 C 348.105469 184.476562 347.359375 182.453125 346.382812 180.519531 C 345.40625 178.582031 344.226562 176.78125 342.84375 175.109375 C 341.460938 173.441406 339.910156 171.945312 338.191406 170.625 C 336.472656 169.304688 334.628906 168.191406 332.65625 167.285156 L 332.65625 156.851562 C 332.65625 154.558594 332.597656 152.265625 332.480469 149.972656 C 332.367188 147.679688 332.195312 145.390625 331.96875 143.109375 C 331.742188 140.824219 331.460938 138.546875 331.121094 136.277344 C 330.78125 134.007812 330.386719 131.746094 329.9375 129.496094 C 329.488281 127.246094 328.984375 125.007812 328.425781 122.78125 C 327.867188 120.554688 327.253906 118.34375 326.585938 116.148438 C 325.917969 113.953125 325.195312 111.773438 324.421875 109.613281 C 323.648438 107.453125 322.820312 105.3125 321.941406 103.195312 C 321.0625 101.074219 320.128906 98.976562 319.148438 96.902344 C 318.164062 94.828125 317.132812 92.777344 316.046875 90.753906 C 314.964844 88.730469 313.832031 86.734375 312.652344 84.765625 C 311.472656 82.800781 310.242188 80.859375 308.96875 78.953125 C 307.691406 77.042969 306.367188 75.167969 305 73.324219 C 303.632812 71.484375 302.21875 69.675781 300.761719 67.898438 C 299.304688 66.125 297.808594 64.390625 296.265625 62.6875 C 294.722656 60.988281 293.140625 59.328125 291.515625 57.703125 C 289.894531 56.082031 288.230469 54.5 286.527344 52.957031 C 284.828125 51.417969 283.089844 49.917969 281.316406 48.460938 C 279.539062 47.003906 277.730469 45.59375 275.886719 44.226562 C 274.042969 42.859375 272.167969 41.535156 270.257812 40.261719 C 268.347656 38.984375 266.410156 37.757812 264.441406 36.578125 C 262.472656 35.398438 260.472656 34.265625 258.449219 33.183594 C 256.425781 32.101562 254.375 31.066406 252.300781 30.085938 C 250.222656 29.105469 248.125 28.171875 246.003906 27.292969 C 243.882812 26.414062 241.742188 25.585938 239.582031 24.8125 C 237.421875 24.039062 235.242188 23.316406 233.042969 22.652344 C 230.847656 21.984375 228.636719 21.371094 226.410156 20.8125 C 224.179688 20.253906 221.941406 19.746094 219.691406 19.296875 C 217.4375 18.847656 215.175781 18.457031 212.90625 18.117188 C 210.636719 17.777344 208.355469 17.496094 206.070312 17.269531 C 203.789062 17.042969 201.5 16.871094 199.203125 16.757812 C 196.910156 16.644531 194.617188 16.585938 192.320312 16.582031 L 182.136719 16.582031 C 179.839844 16.585938 177.542969 16.644531 175.25 16.757812 C 172.957031 16.871094 170.667969 17.042969 168.382812 17.269531 C 166.097656 17.496094 163.820312 17.777344 161.550781 18.117188 C 159.277344 18.457031 157.019531 18.847656 154.765625 19.296875 C 152.515625 19.746094 150.273438 20.253906 148.046875 20.8125 C 145.820312 21.371094 143.609375 21.984375 141.410156 22.652344 C 139.214844 23.316406 137.035156 24.039062 134.875 24.8125 C 132.710938 25.585938 130.570312 26.414062 128.449219 27.292969 C 126.328125 28.171875 124.230469 29.105469 122.15625 30.085938 C 120.082031 31.066406 118.03125 32.101562 116.007812 33.183594 C 113.980469 34.265625 111.984375 35.398438 110.015625 36.578125 C 108.046875 37.757812 106.109375 38.984375 104.199219 40.261719 C 102.289062 41.535156 100.414062 42.859375 98.570312 44.226562 C 96.726562 45.59375 94.914062 47.003906 93.140625 48.460938 C 91.367188 49.917969 89.628906 51.417969 87.925781 52.957031 C 86.226562 54.5 84.5625 56.082031 82.941406 57.703125 C 81.316406 59.328125 79.734375 60.988281 78.191406 62.6875 C 76.648438 64.390625 75.148438 66.125 73.691406 67.898438 C 72.234375 69.675781 70.824219 71.484375 69.457031 73.324219 C 68.085938 75.167969 66.765625 77.042969 65.488281 78.953125 C 64.214844 80.859375 62.984375 82.800781 61.804688 84.765625 C 60.621094 86.734375 59.492188 88.730469 58.40625 90.753906 C 57.324219 92.777344 56.292969 94.828125 55.308594 96.902344 C 54.328125 98.976562 53.394531 101.074219 52.515625 103.195312 C 51.636719 105.3125 50.808594 107.453125 50.035156 109.613281 C 49.257812 111.773438 48.539062 113.953125 47.871094 116.148438 C 47.203125 118.34375 46.589844 120.554688 46.03125 122.78125 C 45.472656 125.007812 44.964844 127.246094 44.515625 129.496094 C 44.066406 131.746094 43.671875 134.007812 43.335938 136.277344 C 42.996094 138.546875 42.714844 140.824219 42.488281 143.109375 C 42.261719 145.390625 42.089844 147.679688 41.976562 149.972656 C 41.859375 152.265625 41.800781 154.558594 41.800781 156.851562 L 41.800781 167.285156 C 39.90625 168.160156 38.128906 169.226562 36.464844 170.484375 C 34.800781 171.742188 33.292969 173.160156 31.9375 174.746094 C 30.578125 176.328125 29.40625 178.039062 28.421875 179.875 C 27.433594 181.710938 26.652344 183.632812 26.082031 185.636719 C 24.339844 187.175781 22.691406 188.804688 21.132812 190.523438 C 19.570312 192.242188 18.109375 194.042969 16.75 195.925781 C 15.390625 197.808594 14.140625 199.761719 12.996094 201.78125 C 11.851562 203.800781 10.824219 205.878906 9.910156 208.015625 C 8.996094 210.148438 8.203125 212.328125 7.53125 214.550781 C 6.859375 216.773438 6.3125 219.023438 5.890625 221.308594 C 5.46875 223.589844 5.175781 225.890625 5.007812 228.207031 C 4.839844 230.519531 4.800781 232.839844 4.890625 235.160156 C 4.789062 237.476562 4.8125 239.796875 4.964844 242.113281 C 5.117188 244.429688 5.398438 246.730469 5.804688 249.015625 C 6.210938 251.300781 6.746094 253.554688 7.402344 255.78125 C 8.0625 258.007812 8.839844 260.191406 9.738281 262.332031 C 10.640625 264.472656 11.65625 266.554688 12.785156 268.582031 C 13.917969 270.609375 15.15625 272.570312 16.503906 274.457031 C 17.851562 276.347656 19.300781 278.160156 20.847656 279.890625 C 22.398438 281.617188 24.035156 283.257812 25.765625 284.804688 C 26.804688 289.089844 28.730469 292.921875 31.550781 296.308594 L 31.550781 299.261719 C 31.550781 300.90625 31.632812 302.550781 31.792969 304.1875 C 31.953125 305.828125 32.195312 307.453125 32.519531 309.070312 C 32.839844 310.683594 33.238281 312.28125 33.71875 313.855469 C 34.195312 315.429688 34.75 316.980469 35.378906 318.5 C 36.011719 320.023438 36.714844 321.507812 37.492188 322.960938 C 38.265625 324.414062 39.113281 325.824219 40.027344 327.191406 C 40.945312 328.5625 41.921875 329.882812 42.96875 331.15625 C 44.015625 332.429688 45.117188 333.648438 46.285156 334.8125 C 47.449219 335.976562 48.667969 337.082031 49.941406 338.125 C 51.214844 339.167969 52.535156 340.148438 53.90625 341.0625 C 55.277344 341.980469 56.6875 342.824219 58.140625 343.601562 C 59.59375 344.375 61.078125 345.078125 62.601562 345.710938 C 64.125 346.339844 65.671875 346.894531 67.25 347.371094 C 68.824219 347.851562 70.421875 348.25 72.039062 348.570312 C 73.652344 348.890625 75.28125 349.132812 76.921875 349.296875 C 78.558594 349.457031 80.203125 349.535156 81.851562 349.535156 L 127.058594 349.535156 C 127.230469 350.132812 127.445312 350.707031 127.710938 351.265625 C 127.972656 351.824219 128.28125 352.359375 128.628906 352.871094 C 128.980469 353.378906 129.367188 353.859375 129.792969 354.304688 C 130.222656 354.753906 130.679688 355.164062 131.171875 355.539062 C 131.664062 355.914062 132.183594 356.246094 132.730469 356.535156 C 133.277344 356.828125 133.839844 357.074219 134.425781 357.273438 C 135.011719 357.472656 135.609375 357.625 136.21875 357.730469 C 136.828125 357.835938 137.441406 357.890625 138.058594 357.894531 L 160.757812 357.894531 C 161.507812 357.890625 162.25 357.816406 162.984375 357.664062 C 163.722656 357.515625 164.433594 357.296875 165.128906 357.007812 C 165.820312 356.71875 166.476562 356.367188 167.101562 355.949219 C 167.722656 355.53125 168.300781 355.058594 168.832031 354.527344 C 169.363281 353.996094 169.835938 353.421875 170.253906 352.796875 C 170.671875 352.175781 171.023438 351.515625 171.3125 350.824219 C 171.601562 350.132812 171.820312 349.417969 171.972656 348.683594 C 172.121094 347.949219 172.195312 347.207031 172.199219 346.457031 L 172.199219 336.589844 C 172.179688 335.839844 172.085938 335.101562 171.921875 334.367188 C 171.757812 333.636719 171.523438 332.929688 171.21875 332.242188 C 170.914062 331.558594 170.546875 330.90625 170.113281 330.292969 C 169.683594 329.679688 169.195312 329.113281 168.65625 328.59375 C 168.113281 328.074219 167.523438 327.613281 166.894531 327.210938 C 166.261719 326.808594 165.59375 326.46875 164.894531 326.195312 C 164.195312 325.921875 163.476562 325.71875 162.738281 325.585938 C 162 325.453125 161.257812 325.390625 160.507812 325.40625 L 137.808594 325.40625 C 137.058594 325.410156 136.316406 325.484375 135.582031 325.632812 C 134.84375 325.785156 134.132812 326.003906 133.4375 326.292969 C 132.746094 326.582031 132.089844 326.933594 131.464844 327.351562 C 130.84375 327.769531 130.265625 328.242188 129.734375 328.773438 C 129.203125 329.304688 128.730469 329.878906 128.3125 330.503906 C 127.894531 331.125 127.542969 331.78125 127.253906 332.476562 C 126.964844 333.167969 126.746094 333.878906 126.597656 334.613281 C 126.445312 335.351562 126.371094 336.09375 126.367188 336.84375 L 126.367188 337.40625 L 81.597656 337.40625 C 80.480469 337.410156 79.367188 337.367188 78.253906 337.269531 C 77.140625 337.175781 76.035156 337.03125 74.933594 336.839844 C 73.835938 336.644531 72.746094 336.402344 71.667969 336.113281 C 70.585938 335.824219 69.523438 335.484375 68.476562 335.101562 C 67.425781 334.71875 66.398438 334.285156 65.386719 333.8125 C 64.375 333.335938 63.390625 332.816406 62.425781 332.25 C 61.460938 331.6875 60.523438 331.082031 59.613281 330.4375 C 58.703125 329.789062 57.820312 329.101562 56.972656 328.378906 C 56.121094 327.652344 55.308594 326.890625 54.523438 326.09375 C 53.742188 325.296875 53 324.464844 52.289062 323.601562 C 51.582031 322.738281 50.914062 321.847656 50.285156 320.921875 C 49.65625 320 49.070312 319.050781 48.527344 318.078125 C 47.980469 317.101562 47.480469 316.105469 47.027344 315.085938 C 46.570312 314.066406 46.160156 313.027344 45.796875 311.972656 C 45.433594 310.917969 45.117188 309.847656 44.847656 308.761719 C 44.582031 307.679688 44.359375 306.585938 44.1875 305.484375 C 47.292969 306.625 50.5 307.210938 53.808594 307.242188 L 72.671875 307.242188 C 73.617188 307.242188 74.566406 307.195312 75.507812 307.101562 C 76.453125 307.011719 77.386719 306.871094 78.316406 306.6875 C 79.246094 306.503906 80.167969 306.273438 81.074219 306 C 81.980469 305.722656 82.871094 305.40625 83.75 305.042969 C 84.625 304.679688 85.480469 304.277344 86.316406 303.832031 C 87.152344 303.382812 87.964844 302.898438 88.753906 302.371094 C 89.542969 301.847656 90.304688 301.285156 91.039062 300.683594 C 91.769531 300.082031 92.472656 299.449219 93.144531 298.777344 C 93.816406 298.109375 94.453125 297.410156 95.054688 296.675781 C 95.65625 295.945312 96.222656 295.1875 96.75 294.398438 C 97.277344 293.613281 97.765625 292.800781 98.214844 291.964844 C 98.660156 291.128906 99.066406 290.277344 99.433594 289.402344 C 99.796875 288.527344 100.117188 287.636719 100.394531 286.730469 C 100.671875 285.824219 100.902344 284.90625 101.089844 283.976562 C 101.273438 283.046875 101.414062 282.113281 101.511719 281.167969 C 101.605469 280.226562 101.652344 279.28125 101.65625 278.332031 L 101.65625 193.429688 C 101.652344 192.046875 101.550781 190.675781 101.347656 189.308594 C 101.148438 187.941406 100.851562 186.597656 100.457031 185.273438 C 100.0625 183.949219 99.574219 182.664062 98.996094 181.410156 C 98.417969 180.15625 97.753906 178.949219 97.003906 177.789062 C 96.25 176.632812 95.421875 175.53125 94.511719 174.492188 C 93.601562 173.453125 92.625 172.484375 91.574219 171.582031 C 90.527344 170.683594 89.421875 169.863281 88.253906 169.121094 C 87.089844 168.382812 85.875 167.726562 84.617188 167.160156 L 84.617188 156.851562 C 84.621094 155.257812 84.660156 153.660156 84.742188 152.066406 C 84.820312 150.472656 84.941406 148.882812 85.097656 147.292969 C 85.253906 145.707031 85.453125 144.121094 85.6875 142.542969 C 85.921875 140.964844 86.199219 139.394531 86.511719 137.828125 C 86.824219 136.261719 87.171875 134.707031 87.5625 133.15625 C 87.949219 131.609375 88.378906 130.070312 88.839844 128.542969 C 89.304688 127.015625 89.804688 125.503906 90.34375 124 C 90.882812 122.496094 91.457031 121.007812 92.070312 119.53125 C 92.679688 118.058594 93.328125 116.601562 94.007812 115.15625 C 94.691406 113.714844 95.410156 112.289062 96.160156 110.878906 C 96.914062 109.472656 97.699219 108.082031 98.519531 106.714844 C 99.339844 105.34375 100.195312 103.996094 101.082031 102.667969 C 101.964844 101.339844 102.886719 100.035156 103.835938 98.753906 C 104.785156 97.46875 105.765625 96.210938 106.777344 94.976562 C 107.789062 93.742188 108.832031 92.53125 109.902344 91.347656 C 110.972656 90.164062 112.074219 89.007812 113.199219 87.878906 C 114.328125 86.746094 115.484375 85.644531 116.664062 84.570312 C 117.847656 83.496094 119.054688 82.453125 120.285156 81.4375 C 121.519531 80.425781 122.777344 79.441406 124.058594 78.488281 C 125.339844 77.535156 126.640625 76.613281 127.96875 75.722656 C 129.292969 74.835938 130.640625 73.976562 132.007812 73.15625 C 133.375 72.332031 134.765625 71.542969 136.171875 70.785156 C 137.578125 70.03125 139 69.308594 140.445312 68.625 C 141.886719 67.9375 143.34375 67.289062 144.816406 66.671875 C 146.289062 66.058594 147.777344 65.480469 149.28125 64.9375 C 150.78125 64.398438 152.296875 63.890625 153.824219 63.425781 C 155.351562 62.957031 156.886719 62.527344 158.4375 62.132812 C 159.984375 61.742188 161.539062 61.386719 163.105469 61.070312 C 164.671875 60.753906 166.242188 60.476562 167.820312 60.234375 C 169.402344 59.996094 170.984375 59.796875 172.574219 59.632812 C 174.160156 59.472656 175.753906 59.347656 177.347656 59.265625 C 178.941406 59.179688 180.539062 59.136719 182.136719 59.128906 L 192.320312 59.128906 C 193.921875 59.132812 195.519531 59.171875 197.117188 59.253906 C 198.714844 59.332031 200.308594 59.453125 201.898438 59.609375 C 203.492188 59.769531 205.078125 59.964844 206.660156 60.203125 C 208.242188 60.4375 209.816406 60.714844 211.386719 61.027344 C 212.953125 61.339844 214.515625 61.691406 216.066406 62.082031 C 217.617188 62.472656 219.15625 62.898438 220.6875 63.363281 C 222.21875 63.832031 223.734375 64.332031 225.242188 64.871094 C 226.746094 65.414062 228.238281 65.988281 229.714844 66.601562 C 231.195312 67.214844 232.65625 67.863281 234.101562 68.546875 C 235.546875 69.230469 236.972656 69.949219 238.382812 70.707031 C 239.792969 71.460938 241.183594 72.246094 242.558594 73.070312 C 243.929688 73.894531 245.28125 74.75 246.609375 75.636719 C 247.9375 76.527344 249.246094 77.445312 250.53125 78.398438 C 251.816406 79.351562 253.074219 80.335938 254.3125 81.351562 C 255.546875 82.363281 256.757812 83.410156 257.945312 84.480469 C 259.128906 85.554688 260.285156 86.65625 261.417969 87.789062 C 262.546875 88.917969 263.652344 90.078125 264.726562 91.261719 C 265.800781 92.445312 266.84375 93.65625 267.859375 94.890625 C 268.875 96.128906 269.859375 97.386719 270.8125 98.671875 C 271.765625 99.953125 272.6875 101.261719 273.574219 102.589844 C 274.464844 103.917969 275.320312 105.269531 276.144531 106.640625 C 276.964844 108.011719 277.753906 109.402344 278.507812 110.8125 C 279.261719 112.222656 279.984375 113.648438 280.667969 115.09375 C 281.351562 116.539062 282 118 282.613281 119.476562 C 283.226562 120.953125 283.804688 122.441406 284.34375 123.949219 C 284.882812 125.453125 285.386719 126.96875 285.851562 128.5 C 286.316406 130.027344 286.746094 131.570312 287.136719 133.121094 C 287.527344 134.671875 287.878906 136.230469 288.191406 137.796875 C 288.503906 139.363281 288.78125 140.9375 289.015625 142.519531 C 289.253906 144.101562 289.449219 145.6875 289.609375 147.277344 C 289.765625 148.871094 289.886719 150.464844 289.964844 152.058594 C 290.046875 153.65625 290.089844 155.253906 290.089844 156.851562 L 290.089844 167.222656 C 288.832031 167.789062 287.621094 168.441406 286.460938 169.179688 C 285.296875 169.921875 284.191406 170.738281 283.144531 171.636719 C 282.097656 172.53125 281.121094 173.5 280.210938 174.539062 C 279.304688 175.574219 278.472656 176.671875 277.722656 177.824219 C 276.972656 178.980469 276.304688 180.183594 275.726562 181.4375 C 275.148438 182.6875 274.660156 183.972656 274.265625 185.292969 C 273.871094 186.613281 273.570312 187.953125 273.367188 189.316406 C 273.164062 190.679688 273.058594 192.050781 273.050781 193.429688 L 273.050781 278.082031 C 273.054688 279.03125 273.101562 279.976562 273.195312 280.917969 C 273.292969 281.859375 273.433594 282.796875 273.617188 283.726562 C 273.804688 284.652344 274.039062 285.570312 274.3125 286.476562 C 274.589844 287.382812 274.910156 288.273438 275.277344 289.148438 C 275.640625 290.023438 276.046875 290.878906 276.496094 291.714844 C 276.941406 292.550781 277.429688 293.359375 277.957031 294.148438 C 278.484375 294.933594 279.050781 295.695312 279.652344 296.425781 C 280.253906 297.15625 280.890625 297.859375 281.5625 298.527344 C 282.234375 299.195312 282.9375 299.832031 283.667969 300.433594 C 284.402344 301.03125 285.164062 301.59375 285.953125 302.121094 C 286.742188 302.648438 287.554688 303.132812 288.390625 303.578125 C 289.226562 304.023438 290.082031 304.429688 290.957031 304.792969 C 291.835938 305.152344 292.726562 305.472656 293.632812 305.746094 C 294.542969 306.019531 295.460938 306.25 296.390625 306.4375 C 297.320312 306.621094 298.257812 306.757812 299.199219 306.851562 C 300.144531 306.945312 301.089844 306.992188 302.035156 306.992188 L 320.898438 306.992188 C 322.460938 306.984375 324.011719 306.851562 325.554688 306.59375 C 327.09375 306.335938 328.605469 305.957031 330.082031 305.453125 C 331.5625 304.949219 332.992188 304.332031 334.371094 303.597656 C 335.75 302.863281 337.058594 302.023438 338.304688 301.078125 C 339.546875 300.132812 340.703125 299.089844 341.777344 297.957031 C 342.851562 296.824219 343.828125 295.609375 344.707031 294.316406 C 345.582031 293.027344 346.351562 291.671875 347.007812 290.253906 C 347.664062 288.839844 348.207031 287.378906 348.625 285.875 C 350.351562 284.328125 351.984375 282.691406 353.527344 280.960938 C 355.070312 279.234375 356.515625 277.429688 357.863281 275.542969 C 359.207031 273.65625 360.445312 271.703125 361.574219 269.683594 C 362.707031 267.660156 363.722656 265.582031 364.625 263.449219 C 365.527344 261.316406 366.308594 259.140625 366.972656 256.921875 C 367.632812 254.699219 368.171875 252.453125 368.585938 250.171875 C 369.003906 247.894531 369.292969 245.601562 369.457031 243.289062 C 369.617188 240.980469 369.65625 238.667969 369.5625 236.351562 C 369.660156 234.027344 369.632812 231.707031 369.472656 229.382812 C 369.316406 227.0625 369.03125 224.757812 368.621094 222.46875 C 368.207031 220.179688 367.671875 217.917969 367.011719 215.6875 C 366.351562 213.457031 365.566406 211.269531 364.667969 209.125 C 363.765625 206.980469 362.746094 204.890625 361.613281 202.859375 C 360.480469 200.828125 359.242188 198.863281 357.894531 196.964844 C 356.542969 195.070312 355.09375 193.253906 353.546875 191.515625 C 351.996094 189.78125 350.355469 188.136719 348.625 186.578125 Z M 138.5 337.40625 L 159.753906 337.40625 L 159.753906 345.703125 L 138.5 345.703125 Z M 17.027344 235.222656 C 16.992188 229.957031 17.636719 224.777344 18.972656 219.683594 C 20.304688 214.589844 22.277344 209.753906 24.886719 205.179688 L 24.886719 265.574219 C 22.242188 260.957031 20.253906 256.074219 18.921875 250.925781 C 17.585938 245.773438 16.957031 240.539062 17.027344 235.222656 Z M 89.207031 278.082031 C 89.207031 278.632812 89.179688 279.179688 89.125 279.726562 C 89.070312 280.273438 88.992188 280.816406 88.882812 281.355469 C 88.777344 281.894531 88.644531 282.425781 88.484375 282.953125 C 88.324219 283.480469 88.140625 283.996094 87.929688 284.503906 C 87.71875 285.011719 87.484375 285.507812 87.226562 285.992188 C 86.964844 286.476562 86.683594 286.949219 86.378906 287.402344 C 86.074219 287.859375 85.746094 288.300781 85.394531 288.726562 C 85.046875 289.152344 84.679688 289.558594 84.289062 289.945312 C 83.902344 290.335938 83.496094 290.703125 83.070312 291.054688 C 82.644531 291.402344 82.203125 291.726562 81.746094 292.035156 C 81.289062 292.339844 80.816406 292.621094 80.332031 292.878906 C 79.847656 293.140625 79.351562 293.375 78.84375 293.585938 C 78.335938 293.792969 77.820312 293.980469 77.292969 294.140625 C 76.765625 294.296875 76.234375 294.433594 75.695312 294.539062 C 75.15625 294.644531 74.613281 294.726562 74.066406 294.78125 C 73.519531 294.835938 72.96875 294.863281 72.417969 294.863281 L 53.558594 294.863281 C 51.597656 294.851562 49.699219 294.507812 47.863281 293.828125 C 46.023438 293.148438 44.359375 292.171875 42.867188 290.902344 C 42.296875 289.644531 41.398438 288.699219 40.164062 288.074219 C 38.746094 286.175781 37.742188 284.082031 37.148438 281.789062 C 37.242188 281.265625 37.242188 280.742188 37.148438 280.21875 C 37.148438 279.589844 37.148438 278.898438 37.148438 278.269531 L 37.148438 193.429688 C 37.085938 192.613281 37.085938 191.796875 37.148438 190.976562 C 37.394531 190.375 37.519531 189.746094 37.523438 189.09375 C 37.753906 188.203125 38.058594 187.339844 38.429688 186.5 C 38.804688 185.65625 39.242188 184.855469 39.746094 184.085938 C 40.253906 183.316406 40.816406 182.597656 41.441406 181.921875 C 42.0625 181.246094 42.738281 180.625 43.464844 180.0625 C 44.191406 179.496094 44.957031 178.996094 45.765625 178.554688 C 46.574219 178.117188 47.414062 177.75 48.28125 177.449219 C 49.148438 177.148438 50.039062 176.917969 50.945312 176.765625 C 51.851562 176.609375 52.761719 176.527344 53.683594 176.523438 L 72.546875 176.523438 C 73.09375 176.527344 73.644531 176.558594 74.191406 176.617188 C 74.738281 176.675781 75.28125 176.757812 75.816406 176.871094 C 76.355469 176.980469 76.886719 177.121094 77.414062 177.28125 C 77.9375 177.445312 78.453125 177.636719 78.960938 177.847656 C 79.464844 178.0625 79.960938 178.300781 80.445312 178.5625 C 80.925781 178.828125 81.394531 179.113281 81.851562 179.421875 C 82.304688 179.730469 82.746094 180.0625 83.167969 180.414062 C 83.589844 180.765625 83.992188 181.136719 84.378906 181.527344 C 84.765625 181.917969 85.128906 182.328125 85.476562 182.753906 C 85.820312 183.183594 86.144531 183.625 86.449219 184.085938 C 86.75 184.546875 87.027344 185.019531 87.285156 185.503906 C 87.539062 185.992188 87.769531 186.488281 87.976562 187 C 88.183594 187.507812 88.363281 188.027344 88.519531 188.554688 C 88.675781 189.082031 88.804688 189.613281 88.910156 190.152344 C 89.011719 190.691406 89.089844 191.238281 89.136719 191.785156 C 89.1875 192.332031 89.210938 192.878906 89.207031 193.429688 Z M 192.320312 47 L 182.136719 47 C 180.335938 47 178.539062 47.046875 176.746094 47.136719 C 174.949219 47.226562 173.15625 47.363281 171.367188 47.539062 C 169.578125 47.71875 167.792969 47.941406 166.015625 48.207031 C 164.238281 48.46875 162.464844 48.777344 160.703125 49.132812 C 158.9375 49.484375 157.1875 49.878906 155.441406 50.316406 C 153.699219 50.753906 151.964844 51.234375 150.246094 51.757812 C 148.527344 52.28125 146.820312 52.847656 145.125 53.453125 C 143.433594 54.058594 141.757812 54.707031 140.097656 55.394531 C 138.433594 56.085938 136.792969 56.8125 135.167969 57.582031 C 133.542969 58.351562 131.9375 59.160156 130.351562 60.007812 C 128.765625 60.855469 127.203125 61.742188 125.660156 62.667969 C 124.117188 63.589844 122.601562 64.554688 121.105469 65.550781 C 119.609375 66.550781 118.140625 67.585938 116.695312 68.65625 C 115.253906 69.726562 113.835938 70.832031 112.445312 71.972656 C 111.054688 73.113281 109.695312 74.289062 108.363281 75.496094 C 107.03125 76.703125 105.730469 77.941406 104.457031 79.210938 C 103.1875 80.484375 101.945312 81.785156 100.738281 83.117188 C 99.53125 84.445312 98.355469 85.808594 97.214844 87.195312 C 96.074219 88.585938 94.96875 90.003906 93.898438 91.445312 C 92.828125 92.890625 91.792969 94.359375 90.792969 95.851562 C 89.792969 97.347656 88.832031 98.863281 87.90625 100.40625 C 86.980469 101.945312 86.09375 103.507812 85.246094 105.09375 C 84.398438 106.679688 83.589844 108.28125 82.820312 109.90625 C 82.050781 111.53125 81.320312 113.171875 80.628906 114.832031 C 79.941406 116.492188 79.292969 118.167969 78.6875 119.863281 C 78.078125 121.554688 77.515625 123.257812 76.992188 124.980469 C 76.46875 126.699219 75.988281 128.429688 75.550781 130.171875 C 75.109375 131.914062 74.714844 133.667969 74.363281 135.429688 C 74.011719 137.191406 73.703125 138.964844 73.4375 140.742188 C 73.171875 142.519531 72.949219 144.300781 72.773438 146.089844 C 72.59375 147.878906 72.460938 149.671875 72.371094 151.464844 C 72.277344 153.261719 72.234375 155.054688 72.230469 156.851562 L 72.230469 164.582031 L 53.933594 164.582031 L 53.933594 156.851562 C 53.9375 154.757812 53.992188 152.664062 54.097656 150.570312 C 54.203125 148.476562 54.359375 146.386719 54.570312 144.300781 C 54.777344 142.214844 55.035156 140.132812 55.347656 138.058594 C 55.65625 135.988281 56.015625 133.921875 56.429688 131.867188 C 56.839844 129.8125 57.300781 127.765625 57.8125 125.734375 C 58.324219 123.703125 58.886719 121.683594 59.496094 119.675781 C 60.109375 117.671875 60.765625 115.683594 61.476562 113.707031 C 62.183594 111.734375 62.941406 109.78125 63.742188 107.84375 C 64.546875 105.910156 65.398438 103.992188 66.296875 102.097656 C 67.195312 100.203125 68.136719 98.332031 69.128906 96.484375 C 70.117188 94.636719 71.152344 92.8125 72.230469 91.015625 C 73.308594 89.21875 74.433594 87.449219 75.597656 85.707031 C 76.765625 83.964844 77.972656 82.25 79.222656 80.566406 C 80.472656 78.882812 81.761719 77.230469 83.09375 75.613281 C 84.421875 73.992188 85.792969 72.40625 87.203125 70.851562 C 88.609375 69.296875 90.054688 67.78125 91.539062 66.296875 C 93.023438 64.816406 94.539062 63.371094 96.09375 61.964844 C 97.648438 60.554688 99.234375 59.1875 100.855469 57.855469 C 102.476562 56.527344 104.128906 55.238281 105.8125 53.988281 C 107.5 52.738281 109.210938 51.53125 110.957031 50.367188 C 112.699219 49.199219 114.46875 48.078125 116.269531 47 C 118.066406 45.921875 119.890625 44.886719 121.738281 43.898438 C 123.589844 42.910156 125.460938 41.964844 127.355469 41.066406 C 129.25 40.171875 131.167969 39.320312 133.105469 38.515625 C 135.042969 37.710938 136.996094 36.957031 138.972656 36.25 C 140.945312 35.542969 142.933594 34.882812 144.941406 34.273438 C 146.949219 33.660156 148.96875 33.101562 151.003906 32.589844 C 153.035156 32.078125 155.082031 31.617188 157.136719 31.207031 C 159.195312 30.792969 161.257812 30.433594 163.332031 30.125 C 165.40625 29.8125 167.488281 29.554688 169.574219 29.347656 C 171.664062 29.136719 173.753906 28.980469 175.847656 28.875 C 177.941406 28.769531 180.039062 28.714844 182.136719 28.710938 L 192.320312 28.710938 C 194.417969 28.714844 196.515625 28.769531 198.609375 28.875 C 200.703125 28.980469 202.792969 29.136719 204.878906 29.347656 C 206.96875 29.554688 209.046875 29.8125 211.121094 30.125 C 213.195312 30.433594 215.261719 30.792969 217.320312 31.207031 C 219.375 31.617188 221.421875 32.078125 223.453125 32.589844 C 225.488281 33.101562 227.507812 33.660156 229.515625 34.273438 C 231.519531 34.882812 233.511719 35.542969 235.484375 36.25 C 237.460938 36.957031 239.414062 37.710938 241.351562 38.515625 C 243.289062 39.320312 245.207031 40.171875 247.101562 41.066406 C 248.996094 41.964844 250.867188 42.910156 252.71875 43.898438 C 254.566406 44.886719 256.390625 45.921875 258.1875 47 C 259.988281 48.078125 261.757812 49.199219 263.5 50.367188 C 265.246094 51.53125 266.957031 52.738281 268.640625 53.988281 C 270.328125 55.238281 271.980469 56.527344 273.601562 57.855469 C 275.222656 59.1875 276.808594 60.554688 278.363281 61.964844 C 279.914062 63.371094 281.433594 64.816406 282.917969 66.296875 C 284.398438 67.78125 285.847656 69.296875 287.253906 70.851562 C 288.664062 72.40625 290.03125 73.992188 291.363281 75.613281 C 292.695312 77.230469 293.984375 78.882812 295.234375 80.566406 C 296.484375 82.25 297.691406 83.964844 298.859375 85.707031 C 300.023438 87.449219 301.144531 89.21875 302.226562 91.015625 C 303.304688 92.8125 304.339844 94.636719 305.328125 96.484375 C 306.316406 98.332031 307.261719 100.203125 308.160156 102.097656 C 309.058594 103.992188 309.910156 105.910156 310.710938 107.84375 C 311.515625 109.78125 312.273438 111.734375 312.980469 113.707031 C 313.6875 115.683594 314.347656 117.671875 314.960938 119.675781 C 315.570312 121.683594 316.128906 123.703125 316.640625 125.734375 C 317.152344 127.765625 317.617188 129.8125 318.027344 131.867188 C 318.4375 133.921875 318.800781 135.988281 319.109375 138.058594 C 319.417969 140.132812 319.679688 142.214844 319.886719 144.300781 C 320.09375 146.386719 320.253906 148.476562 320.359375 150.570312 C 320.464844 152.664062 320.519531 154.757812 320.523438 156.851562 L 320.523438 164.582031 L 302.226562 164.582031 L 302.226562 156.851562 C 302.222656 155.054688 302.175781 153.261719 302.085938 151.464844 C 301.996094 149.671875 301.863281 147.878906 301.683594 146.089844 C 301.507812 144.300781 301.285156 142.519531 301.019531 140.742188 C 300.753906 138.964844 300.445312 137.191406 300.09375 135.429688 C 299.742188 133.667969 299.34375 131.914062 298.90625 130.171875 C 298.46875 128.429688 297.988281 126.699219 297.464844 124.980469 C 296.941406 123.257812 296.375 121.554688 295.769531 119.863281 C 295.164062 118.167969 294.515625 116.492188 293.824219 114.832031 C 293.136719 113.171875 292.40625 111.53125 291.636719 109.90625 C 290.867188 108.28125 290.058594 106.679688 289.210938 105.09375 C 288.363281 103.507812 287.476562 101.945312 286.550781 100.40625 C 285.625 98.863281 284.664062 97.347656 283.664062 95.851562 C 282.664062 94.359375 281.628906 92.890625 280.558594 91.445312 C 279.488281 90.003906 278.378906 88.585938 277.238281 87.195312 C 276.097656 85.808594 274.925781 84.445312 273.71875 83.117188 C 272.507812 81.785156 271.269531 80.484375 270 79.210938 C 268.726562 77.941406 267.425781 76.703125 266.09375 75.496094 C 264.761719 74.289062 263.398438 73.113281 262.007812 71.972656 C 260.621094 70.832031 259.203125 69.726562 257.757812 68.65625 C 256.316406 67.585938 254.84375 66.550781 253.351562 65.550781 C 251.855469 64.554688 250.335938 63.589844 248.796875 62.667969 C 247.253906 61.742188 245.691406 60.855469 244.105469 60.007812 C 242.519531 59.160156 240.914062 58.351562 239.289062 57.582031 C 237.664062 56.8125 236.019531 56.085938 234.359375 55.394531 C 232.699219 54.707031 231.023438 54.058594 229.328125 53.453125 C 227.636719 52.847656 225.929688 52.28125 224.210938 51.757812 C 222.488281 51.234375 220.757812 50.753906 219.015625 50.316406 C 217.269531 49.878906 215.515625 49.484375 213.753906 49.132812 C 211.992188 48.777344 210.21875 48.46875 208.441406 48.207031 C 206.664062 47.941406 204.878906 47.71875 203.089844 47.539062 C 201.300781 47.363281 199.507812 47.226562 197.710938 47.136719 C 195.914062 47.046875 194.117188 47 192.320312 47 Z M 320.648438 294.863281 L 301.785156 294.863281 C 301.234375 294.863281 300.6875 294.835938 300.140625 294.78125 C 299.59375 294.726562 299.050781 294.644531 298.511719 294.539062 C 297.972656 294.433594 297.4375 294.296875 296.910156 294.140625 C 296.386719 293.980469 295.867188 293.792969 295.359375 293.585938 C 294.851562 293.375 294.355469 293.140625 293.871094 292.878906 C 293.386719 292.621094 292.914062 292.339844 292.457031 292.035156 C 292 291.726562 291.558594 291.402344 291.136719 291.054688 C 290.710938 290.703125 290.304688 290.335938 289.914062 289.945312 C 289.527344 289.558594 289.15625 289.152344 288.808594 288.726562 C 288.460938 288.300781 288.132812 287.859375 287.828125 287.402344 C 287.519531 286.949219 287.238281 286.476562 286.980469 285.992188 C 286.722656 285.507812 286.484375 285.011719 286.277344 284.503906 C 286.066406 283.996094 285.878906 283.480469 285.71875 282.953125 C 285.5625 282.425781 285.425781 281.894531 285.320312 281.355469 C 285.214844 280.816406 285.132812 280.273438 285.078125 279.726562 C 285.023438 279.179688 284.996094 278.632812 284.996094 278.082031 L 284.996094 193.429688 C 284.996094 192.878906 285.023438 192.332031 285.078125 191.785156 C 285.132812 191.238281 285.214844 190.695312 285.320312 190.15625 C 285.425781 189.617188 285.5625 189.085938 285.71875 188.558594 C 285.878906 188.03125 286.066406 187.515625 286.277344 187.007812 C 286.484375 186.5 286.722656 186.003906 286.980469 185.519531 C 287.238281 185.035156 287.519531 184.5625 287.828125 184.105469 C 288.132812 183.648438 288.460938 183.210938 288.808594 182.785156 C 289.15625 182.359375 289.527344 181.953125 289.914062 181.5625 C 290.304688 181.175781 290.710938 180.808594 291.136719 180.457031 C 291.558594 180.109375 292 179.78125 292.457031 179.476562 C 292.914062 179.171875 293.386719 178.890625 293.871094 178.632812 C 294.355469 178.371094 294.851562 178.136719 295.359375 177.925781 C 295.867188 177.714844 296.386719 177.53125 296.910156 177.371094 C 297.4375 177.210938 297.972656 177.078125 298.511719 176.972656 C 299.050781 176.863281 299.59375 176.785156 300.140625 176.730469 C 300.6875 176.675781 301.234375 176.648438 301.785156 176.648438 L 320.648438 176.648438 C 321.582031 176.652344 322.511719 176.730469 323.433594 176.890625 C 324.355469 177.046875 325.257812 177.28125 326.140625 177.589844 C 327.023438 177.898438 327.875 178.277344 328.691406 178.726562 C 329.511719 179.175781 330.289062 179.691406 331.023438 180.273438 C 331.753906 180.851562 332.433594 181.488281 333.0625 182.183594 C 333.6875 182.875 334.253906 183.617188 334.757812 184.40625 C 335.257812 185.195312 335.695312 186.019531 336.058594 186.878906 C 336.421875 187.738281 336.714844 188.625 336.933594 189.53125 C 336.960938 190.199219 337.085938 190.851562 337.308594 191.480469 C 337.339844 192.066406 337.339844 192.652344 337.308594 193.242188 L 337.308594 278.082031 C 337.371094 278.878906 337.371094 279.675781 337.308594 280.46875 C 337.054688 281.09375 336.929688 281.742188 336.933594 282.417969 C 336.695312 283.308594 336.386719 284.171875 336.003906 285.007812 C 335.625 285.847656 335.179688 286.648438 334.667969 287.414062 C 334.15625 288.179688 333.582031 288.898438 332.953125 289.566406 C 332.324219 290.238281 331.640625 290.855469 330.910156 291.414062 C 330.179688 291.972656 329.40625 292.46875 328.59375 292.898438 C 327.78125 293.332031 326.9375 293.695312 326.066406 293.988281 C 325.191406 294.28125 324.300781 294.5 323.390625 294.648438 C 322.484375 294.792969 321.566406 294.867188 320.648438 294.863281 Z M 349.570312 266.328125 L 349.570312 206 C 350.851562 208.292969 351.984375 210.660156 352.964844 213.101562 C 353.949219 215.542969 354.769531 218.035156 355.433594 220.578125 C 356.09375 223.121094 356.59375 225.699219 356.929688 228.308594 C 357.261719 230.914062 357.429688 233.535156 357.429688 236.164062 C 357.429688 238.792969 357.261719 241.414062 356.929688 244.019531 C 356.59375 246.628906 356.09375 249.207031 355.433594 251.75 C 354.769531 254.292969 353.949219 256.785156 352.964844 259.226562 C 351.984375 261.667969 350.851562 264.035156 349.570312 266.328125 Z M 349.570312 266.328125 " fill-opacity="1" fill-rule="nonzero"/></g></svg>